<svg width="350" height="190" viewBox="0 0 350 190" fill="none" xmlns="http://www.w3.org/2000/svg">
<g clip-path="url(#clip0_430_28)">
<path d="M23.2259 16.2379L16.561 27.6527L9.89611 16.2379H23.2259ZM25.0114 15.2177H8.10339L16.561 29.6717L25.0114 15.2177Z" fill="white"/>
<path d="M34.8137 2.0404L41.4786 13.4552H28.1488L34.8137 2.0404ZM34.8137 0L26.3561 14.454H43.2713L34.8137 0Z" fill="white"/>
<path d="M0 0L7.09143 12.7846L14.8406 0.321025L0 0Z" fill="#4CAF4F"/>
<path d="M16.5612 1.11987L23.9997 13.8332H9.1084L16.5612 1.11987Z" fill="#4CAF4F"/>
<path d="M25.9152 16.6089L33.3608 29.6718H18.1154L25.6838 16.6089H25.9152Z" fill="#4CAF4F"/>
<path d="M27.5271 15.8169L34.8137 28.68L42.2014 15.8169H27.5271Z" fill="#4CAF4F"/>
<path d="M74.2197 2.06335V27.2394H69.6222L58.6691 11.3937H58.4847V27.2394H53.1619V2.06335H57.8332L68.7002 17.8967H68.9215V2.06335H74.2197Z" fill="white"/>
<path d="M87.1243 27.6082C85.182 27.6082 83.5102 27.2148 82.1088 26.428C80.7156 25.6331 79.642 24.5103 78.888 23.0598C78.134 21.601 77.757 19.8759 77.757 17.8844C77.757 15.9421 78.134 14.2375 78.888 12.7705C79.642 11.3036 80.7033 10.1603 82.0719 9.3408C83.4487 8.52127 85.0632 8.1115 86.9153 8.1115C88.161 8.1115 89.3206 8.31229 90.3942 8.71386C91.476 9.10723 92.4185 9.70139 93.2216 10.4963C94.033 11.2913 94.664 12.2911 95.1147 13.4958C95.5655 14.6923 95.7908 16.0937 95.7908 17.7V19.1383H79.8469V15.893H90.8614C90.8614 15.139 90.6975 14.4711 90.3696 13.8892C90.0418 13.3073 89.587 12.8525 89.0051 12.5247C88.4315 12.1887 87.7635 12.0207 87.0014 12.0207C86.2064 12.0207 85.5016 12.2051 84.887 12.5739C84.2805 12.9344 83.8052 13.4221 83.461 14.0367C83.1168 14.6432 82.9406 15.3193 82.9324 16.0651V19.1506C82.9324 20.0849 83.1045 20.8921 83.4487 21.5723C83.8011 22.2525 84.2969 22.777 84.9361 23.1458C85.5754 23.5146 86.3335 23.699 87.2104 23.699C87.7922 23.699 88.3249 23.617 88.8084 23.4531C89.292 23.2892 89.7058 23.0434 90.05 22.7156C90.3942 22.3877 90.6565 21.9862 90.8368 21.5109L95.6802 21.8305C95.4344 22.9942 94.9303 24.0104 94.1682 24.8791C93.4142 25.7396 92.439 26.4117 91.2424 26.8952C90.0541 27.3705 88.6814 27.6082 87.1243 27.6082Z" fill="white"/>
<path d="M103.247 8.35736L106.713 14.9587L110.266 8.35736H115.638L110.167 17.7984L115.785 27.2394H110.438L106.713 20.7118L103.05 27.2394H97.6409L103.247 17.7984L97.8376 8.35736H103.247Z" fill="white"/>
<path d="M126.603 27.6082C124.669 27.6082 123.005 27.1984 121.612 26.3789C120.227 25.5511 119.162 24.4038 118.416 22.9368C117.679 21.4699 117.31 19.7816 117.31 17.8721C117.31 15.938 117.683 14.2416 118.428 12.7828C119.182 11.3159 120.252 10.1726 121.637 9.35309C123.022 8.52536 124.669 8.1115 126.579 8.1115C128.226 8.1115 129.668 8.41063 130.906 9.00889C132.143 9.60715 133.123 10.4472 133.844 11.5289C134.565 12.6107 134.962 13.881 135.036 15.3398H130.094C129.955 14.3973 129.586 13.6392 128.988 13.0656C128.398 12.4837 127.624 12.1928 126.665 12.1928C125.853 12.1928 125.144 12.414 124.538 12.8566C123.94 13.2909 123.473 13.9261 123.137 14.762C122.801 15.5979 122.633 16.61 122.633 17.7984C122.633 19.0031 122.796 20.0275 123.124 20.8716C123.46 21.7157 123.932 22.3591 124.538 22.8016C125.144 23.2442 125.853 23.4654 126.665 23.4654C127.263 23.4654 127.8 23.3425 128.275 23.0966C128.759 22.8508 129.156 22.4943 129.467 22.0272C129.787 21.5518 129.996 20.9823 130.094 20.3184H135.036C134.954 21.7608 134.561 23.0311 133.856 24.1293C133.159 25.2192 132.197 26.0715 130.967 26.6862C129.738 27.3008 128.283 27.6082 126.603 27.6082Z" fill="white"/>
<path d="M146.994 27.6082C145.052 27.6082 143.38 27.2148 141.979 26.428C140.585 25.6331 139.512 24.5103 138.758 23.0598C138.004 21.601 137.627 19.8759 137.627 17.8844C137.627 15.9421 138.004 14.2375 138.758 12.7705C139.512 11.3036 140.573 10.1603 141.942 9.3408C143.319 8.52127 144.933 8.1115 146.785 8.1115C148.031 8.1115 149.191 8.31229 150.264 8.71386C151.346 9.10723 152.288 9.70139 153.092 10.4963C153.903 11.2913 154.534 12.2911 154.985 13.4958C155.435 14.6923 155.661 16.0937 155.661 17.7V19.1383H139.717V15.893H150.731C150.731 15.139 150.567 14.4711 150.24 13.8892C149.912 13.3073 149.457 12.8525 148.875 12.5247C148.301 12.1887 147.633 12.0207 146.871 12.0207C146.076 12.0207 145.372 12.2051 144.757 12.5739C144.15 12.9344 143.675 13.4221 143.331 14.0367C142.987 14.6432 142.81 15.3193 142.802 16.0651V19.1506C142.802 20.0849 142.974 20.8921 143.319 21.5723C143.671 22.2525 144.167 22.777 144.806 23.1458C145.445 23.5146 146.203 23.699 147.08 23.699C147.662 23.699 148.195 23.617 148.678 23.4531C149.162 23.2892 149.576 23.0434 149.92 22.7156C150.264 22.3877 150.526 21.9862 150.707 21.5109L155.55 21.8305C155.304 22.9942 154.8 24.0104 154.038 24.8791C153.284 25.7396 152.309 26.4117 151.112 26.8952C149.924 27.3705 148.551 27.6082 146.994 27.6082Z" fill="white"/>
<path d="M164.315 16.3232V27.2394H159.078V8.35736H164.069V11.6888H164.29C164.708 10.5906 165.409 9.72188 166.393 9.08265C167.376 8.43522 168.568 8.1115 169.97 8.1115C171.281 8.1115 172.424 8.39834 173.4 8.97201C174.375 9.54568 175.133 10.3652 175.674 11.4306C176.215 12.4878 176.485 13.7499 176.485 15.2168V27.2394H171.248V16.1511C171.256 14.9956 170.961 14.0941 170.363 13.4467C169.765 12.791 168.941 12.4632 167.892 12.4632C167.187 12.4632 166.565 12.6148 166.024 12.9181C165.491 13.2213 165.073 13.6638 164.77 14.2457C164.475 14.8194 164.323 15.5119 164.315 16.3232Z" fill="white"/>
<path d="M190.656 8.35736V12.2911H179.285V8.35736H190.656ZM181.866 3.83354H187.103V21.4371C187.103 21.9206 187.177 22.2976 187.324 22.568C187.472 22.8303 187.677 23.0147 187.939 23.1212C188.209 23.2278 188.521 23.281 188.873 23.281C189.119 23.281 189.365 23.2606 189.611 23.2196C189.857 23.1704 190.045 23.1335 190.176 23.1089L191 27.0058C190.738 27.0878 190.369 27.182 189.894 27.2885C189.418 27.4033 188.841 27.4729 188.16 27.4975C186.898 27.5467 185.792 27.3787 184.841 26.9935C183.899 26.6083 183.165 26.0101 182.641 25.1987C182.116 24.3874 181.858 23.363 181.866 22.1255V3.83354Z" fill="white"/>
<g clip-path="url(#clip1_430_28)">
<path d="M9.42614 77.6718H8.19318C8.12027 77.3171 7.99266 77.0056 7.81037 76.7371C7.63139 76.4686 7.41264 76.2432 7.15412 76.061C6.89891 75.8754 6.61553 75.7361 6.30398 75.6433C5.99242 75.5505 5.66761 75.5041 5.32955 75.5041C4.71307 75.5041 4.15459 75.6599 3.65412 75.9715C3.15696 76.283 2.76089 76.7421 2.46591 77.3486C2.17424 77.9551 2.02841 78.6992 2.02841 79.5808C2.02841 80.4625 2.17424 81.2066 2.46591 81.8131C2.76089 82.4196 3.15696 82.8787 3.65412 83.1902C4.15459 83.5018 4.71307 83.6575 5.32955 83.6575C5.66761 83.6575 5.99242 83.6111 6.30398 83.5183C6.61553 83.4255 6.89891 83.288 7.15412 83.1057C7.41264 82.9201 7.63139 82.6931 7.81037 82.4246C7.99266 82.1528 8.12027 81.8413 8.19318 81.4899H9.42614C9.33333 82.0103 9.1643 82.476 8.91903 82.887C8.67377 83.2979 8.36885 83.6476 8.00426 83.936C7.63968 84.221 7.23035 84.4381 6.77628 84.5872C6.32552 84.7364 5.84328 84.811 5.32955 84.811C4.46117 84.811 3.68892 84.5988 3.01278 84.1746C2.33665 83.7504 1.80469 83.1471 1.4169 82.3649C1.02912 81.5827 0.835227 80.6547 0.835227 79.5808C0.835227 78.507 1.02912 77.5789 1.4169 76.7968C1.80469 76.0146 2.33665 75.4113 3.01278 74.9871C3.68892 74.5629 4.46117 74.3507 5.32955 74.3507C5.84328 74.3507 6.32552 74.4253 6.77628 74.5745C7.23035 74.7236 7.63968 74.9423 8.00426 75.2307C8.36885 75.5157 8.67377 75.8638 8.91903 76.2747C9.1643 76.6824 9.33333 77.1481 9.42614 77.6718ZM14.3617 84.8308C13.6723 84.8308 13.0674 84.6668 12.5471 84.3387C12.03 84.0105 11.6257 83.5515 11.334 82.9615C11.0456 82.3716 10.9015 81.6822 10.9015 80.8933C10.9015 80.0979 11.0456 79.4035 11.334 78.8102C11.6257 78.217 12.03 77.7563 12.5471 77.4281C13.0674 77.1 13.6723 76.936 14.3617 76.936C15.0511 76.936 15.6543 77.1 16.1713 77.4281C16.6917 77.7563 17.0961 78.217 17.3844 78.8102C17.6761 79.4035 17.8219 80.0979 17.8219 80.8933C17.8219 81.6822 17.6761 82.3716 17.3844 82.9615C17.0961 83.5515 16.6917 84.0105 16.1713 84.3387C15.6543 84.6668 15.0511 84.8308 14.3617 84.8308ZM14.3617 83.7769C14.8854 83.7769 15.3162 83.6426 15.6543 83.3742C15.9924 83.1057 16.2426 82.7527 16.405 82.3152C16.5674 81.8777 16.6486 81.4038 16.6486 80.8933C16.6486 80.3829 16.5674 79.9073 16.405 79.4665C16.2426 79.0257 15.9924 78.6694 15.6543 78.3976C15.3162 78.1258 14.8854 77.9899 14.3617 77.9899C13.838 77.9899 13.4071 78.1258 13.0691 78.3976C12.731 78.6694 12.4808 79.0257 12.3184 79.4665C12.156 79.9073 12.0748 80.3829 12.0748 80.8933C12.0748 81.4038 12.156 81.8777 12.3184 82.3152C12.4808 82.7527 12.731 83.1057 13.0691 83.3742C13.4071 83.6426 13.838 83.7769 14.3617 83.7769ZM19.6129 87.5354V77.0354H20.7464V78.2485H20.8857C20.9718 78.1159 21.0911 77.9468 21.2436 77.7414C21.3994 77.5325 21.6214 77.3469 21.9098 77.1845C22.2015 77.0188 22.5959 76.936 23.093 76.936C23.736 76.936 24.3028 77.0967 24.7933 77.4182C25.2839 77.7397 25.6667 78.1954 25.9418 78.7854C26.2169 79.3754 26.3544 80.0714 26.3544 80.8735C26.3544 81.6822 26.2169 82.3832 25.9418 82.9764C25.6667 83.5664 25.2855 84.0238 24.7983 84.3486C24.3111 84.6701 23.7493 84.8308 23.1129 84.8308C22.6224 84.8308 22.2296 84.7496 21.9347 84.5872C21.6397 84.4215 21.4126 84.2343 21.2536 84.0254C21.0945 83.8133 20.9718 83.6377 20.8857 83.4985H20.7862V87.5354H19.6129ZM20.7663 80.8536C20.7663 81.4303 20.8509 81.939 21.0199 82.3798C21.1889 82.8173 21.4358 83.1604 21.7607 83.409C22.0855 83.6542 22.4832 83.7769 22.9538 83.7769C23.4444 83.7769 23.8537 83.6476 24.1818 83.3891C24.5133 83.1272 24.7618 82.7759 24.9276 82.3351C25.0966 81.891 25.1811 81.3971 25.1811 80.8536C25.1811 80.3166 25.0982 79.8327 24.9325 79.4019C24.7701 78.9677 24.5232 78.6246 24.1918 78.3727C23.8636 78.1175 23.451 77.9899 22.9538 77.9899C22.4766 77.9899 22.0755 78.1109 21.7507 78.3529C21.4259 78.5915 21.1806 78.9263 21.0149 79.3571C20.8492 79.7847 20.7663 80.2835 20.7663 80.8536ZM28.6264 87.5354C28.4276 87.5354 28.2502 87.5188 28.0945 87.4857C27.9387 87.4558 27.831 87.426 27.7713 87.3962L28.0696 86.3621C28.3546 86.435 28.6065 86.4615 28.8253 86.4416C29.044 86.4218 29.2379 86.324 29.407 86.1483C29.5793 85.976 29.7367 85.6959 29.8793 85.3081L30.098 84.7115L27.2741 77.0354H28.5469L30.6548 83.1206H30.7344L32.8423 77.0354H34.1151L30.8736 85.7854C30.7277 86.1798 30.5471 86.5063 30.3317 86.7648C30.1162 87.0266 29.866 87.2205 29.581 87.3465C29.2992 87.4724 28.9811 87.5354 28.6264 87.5354ZM35.6637 84.6718V77.0354H36.7972V78.1888H36.8768C37.016 77.811 37.2679 77.5044 37.6325 77.2691C37.997 77.0337 38.408 76.9161 38.8654 76.9161C38.9516 76.9161 39.0593 76.9177 39.1886 76.921C39.3178 76.9244 39.4156 76.9293 39.4819 76.936V78.1291C39.4421 78.1192 39.351 78.1043 39.2085 78.0844C39.0692 78.0612 38.9218 78.0496 38.766 78.0496C38.3948 78.0496 38.0633 78.1275 37.7717 78.2833C37.4833 78.4357 37.2546 78.6478 37.0856 78.9196C36.9199 79.1881 36.837 79.4947 36.837 79.8394V84.6718H35.6637ZM40.8727 84.6718V77.0354H42.046V84.6718H40.8727ZM41.4693 75.7627C41.2406 75.7627 41.0434 75.6848 40.8777 75.529C40.7153 75.3732 40.6341 75.186 40.6341 74.9672C40.6341 74.7485 40.7153 74.5612 40.8777 74.4054C41.0434 74.2496 41.2406 74.1718 41.4693 74.1718C41.698 74.1718 41.8935 74.2496 42.0559 74.4054C42.2217 74.5612 42.3045 74.7485 42.3045 74.9672C42.3045 75.186 42.2217 75.3732 42.0559 75.529C41.8935 75.6848 41.698 75.7627 41.4693 75.7627ZM47.2773 87.6945C46.7106 87.6945 46.2234 87.6216 45.8157 87.4757C45.408 87.3332 45.0683 87.1443 44.7965 86.909C44.5281 86.677 44.3143 86.4284 44.1552 86.1632L45.0898 85.507C45.1959 85.6462 45.3301 85.8053 45.4925 85.9843C45.6549 86.1665 45.877 86.324 46.1587 86.4566C46.4438 86.5924 46.8166 86.6604 47.2773 86.6604C47.8938 86.6604 48.4026 86.5112 48.8036 86.2129C49.2047 85.9147 49.4052 85.4473 49.4052 84.811V83.2598H49.3058C49.2196 83.399 49.0969 83.5714 48.9379 83.7769C48.7821 83.979 48.5567 84.1597 48.2617 84.3188C47.9701 84.4745 47.5756 84.5524 47.0785 84.5524C46.462 84.5524 45.9085 84.4066 45.418 84.1149C44.9308 83.8233 44.5446 83.399 44.2596 82.8422C43.9779 82.2854 43.837 81.6093 43.837 80.8138C43.837 80.0316 43.9746 79.3505 44.2496 78.7705C44.5247 78.1871 44.9076 77.7364 45.3981 77.4182C45.8886 77.0967 46.4554 76.936 47.0984 76.936C47.5955 76.936 47.9899 77.0188 48.2816 77.1845C48.5766 77.3469 48.802 77.5325 48.9577 77.7414C49.1168 77.9468 49.2395 78.1159 49.3256 78.2485H49.445V77.0354H50.5785V84.8905C50.5785 85.5468 50.4293 86.0804 50.131 86.4914C49.8361 86.9057 49.4383 87.2089 48.9379 87.4012C48.4407 87.5967 47.8872 87.6945 47.2773 87.6945ZM47.2376 83.4985C47.7082 83.4985 48.1059 83.3907 48.4308 83.1753C48.7556 82.9599 49.0025 82.65 49.1715 82.2456C49.3406 81.8413 49.4251 81.3574 49.4251 80.7939C49.4251 80.2437 49.3422 79.7582 49.1765 79.3372C49.0108 78.9163 48.7655 78.5865 48.4407 78.3479C48.1159 78.1093 47.7148 77.9899 47.2376 77.9899C46.7404 77.9899 46.3261 78.1159 45.9947 78.3678C45.6665 78.6197 45.4196 78.9577 45.2539 79.382C45.0915 79.8062 45.0103 80.2769 45.0103 80.7939C45.0103 81.3242 45.0932 81.7932 45.2589 82.2009C45.4279 82.6052 45.6765 82.9234 46.0046 83.1554C46.3361 83.3841 46.747 83.4985 47.2376 83.4985ZM53.8995 80.078V84.6718H52.7262V74.4899H53.8995V78.2286H53.9989C54.1779 77.8342 54.4464 77.5209 54.8043 77.2889C55.1656 77.0536 55.6462 76.936 56.2461 76.936C56.7665 76.936 57.2222 77.0404 57.6133 77.2492C58.0044 77.4547 58.3076 77.7712 58.5231 78.1987C58.7418 78.623 58.8512 79.1632 58.8512 79.8195V84.6718H57.6779V79.899C57.6779 79.2925 57.5205 78.8235 57.2056 78.4921C56.8941 78.1573 56.4615 77.9899 55.908 77.9899C55.5236 77.9899 55.1789 78.0711 54.8739 78.2335C54.5723 78.3959 54.3337 78.6329 54.158 78.9445C53.9857 79.256 53.8995 79.6339 53.8995 80.078ZM64.3187 77.0354V78.0297H60.3613V77.0354H64.3187ZM61.5147 75.2058H62.688V82.4843C62.688 82.8157 62.7361 83.0643 62.8322 83.23C62.9316 83.3924 63.0576 83.5018 63.21 83.5581C63.3658 83.6111 63.5299 83.6377 63.7022 83.6377C63.8315 83.6377 63.9376 83.631 64.0204 83.6178C64.1033 83.6012 64.1696 83.5879 64.2193 83.578L64.4579 84.632C64.3784 84.6618 64.2673 84.6916 64.1248 84.7215C63.9823 84.7546 63.8017 84.7712 63.5829 84.7712C63.2515 84.7712 62.9267 84.6999 62.6085 84.5574C62.2936 84.4149 62.0318 84.1978 61.823 83.9061C61.6175 83.6145 61.5147 83.2466 61.5147 82.8024V75.2058ZM72.4473 79.5808C72.4473 79.0373 72.5798 78.5418 72.845 78.0943C73.1101 77.6469 73.4664 77.2906 73.9139 77.0254C74.3613 76.7603 74.8568 76.6277 75.4004 76.6277C75.871 76.6277 76.3052 76.7288 76.7029 76.931C77.104 77.1332 77.4354 77.4099 77.6973 77.7612C77.9591 78.1093 78.1215 78.5037 78.1845 78.9445H76.9814C76.9151 78.6031 76.7311 78.3247 76.4295 78.1093C76.1279 77.8905 75.7849 77.7811 75.4004 77.7811C75.069 77.7811 74.7673 77.8623 74.4956 78.0247C74.2238 78.1871 74.0067 78.4042 73.8443 78.676C73.6819 78.9478 73.6007 79.2494 73.6007 79.5808C73.6007 79.9123 73.6819 80.2139 73.8443 80.4857C74.0067 80.7575 74.2238 80.9745 74.4956 81.137C74.7673 81.2994 75.069 81.3806 75.4004 81.3806C75.7849 81.3806 76.1097 81.2728 76.3748 81.0574C76.6433 80.8387 76.8123 80.5586 76.8819 80.2172H78.085C78.0221 80.658 77.868 81.0541 77.6227 81.4054C77.3774 81.7534 77.0626 82.0285 76.6781 82.2307C76.2969 82.4329 75.871 82.534 75.4004 82.534C74.8568 82.534 74.3613 82.4014 73.9139 82.1362C73.4664 81.8711 73.1101 81.5148 72.845 81.0673C72.5798 80.6199 72.4473 80.1244 72.4473 79.5808ZM75.3507 84.8308C74.6281 84.8308 73.9487 84.695 73.3123 84.4232C72.6793 84.1514 72.1208 83.7752 71.6369 83.2946C71.1563 82.8107 70.7785 82.2522 70.5034 81.6192C70.2316 80.9861 70.0974 80.3067 70.1007 79.5808C70.104 78.855 70.2415 78.1755 70.5133 77.5425C70.7884 76.9094 71.1663 76.3526 71.6468 75.872C72.1274 75.3881 72.6842 75.0103 73.3173 74.7385C73.9503 74.4667 74.6281 74.3308 75.3507 74.3308C76.0765 74.3308 76.756 74.4667 77.389 74.7385C78.0254 75.0103 78.5822 75.3881 79.0595 75.872C79.5401 76.3526 79.9163 76.9094 80.188 77.5425C80.4598 78.1755 80.5974 78.855 80.6007 79.5808C80.604 80.3067 80.4698 80.9861 80.198 81.6192C79.9262 82.2522 79.55 82.8107 79.0694 83.2946C78.5888 83.7752 78.0304 84.1514 77.394 84.4232C76.7576 84.695 76.0765 84.8308 75.3507 84.8308ZM75.3507 83.6774C75.9174 83.6774 76.4494 83.5714 76.9466 83.3593C77.4437 83.1471 77.8796 82.8538 78.2541 82.4793C78.6286 82.1048 78.9219 81.6706 79.1341 81.1767C79.3462 80.6796 79.4506 80.1493 79.4473 79.5858C79.444 79.0191 79.3362 78.4871 79.1241 77.9899C78.912 77.4928 78.6187 77.0569 78.2441 76.6824C77.8696 76.3079 77.4354 76.0146 76.9416 75.8024C76.4477 75.5903 75.9174 75.4843 75.3507 75.4843C74.7872 75.4843 74.2586 75.5903 73.7647 75.8024C73.2709 76.0146 72.8367 76.3095 72.4622 76.6874C72.0877 77.0619 71.7927 77.4977 71.5772 77.9949C71.3651 78.4888 71.2574 79.0191 71.2541 79.5858C71.2508 80.1459 71.3552 80.6746 71.5673 81.1718C71.7794 81.6656 72.0727 82.0998 72.4473 82.4743C72.8251 82.8488 73.2609 83.1438 73.7548 83.3593C74.252 83.5714 74.7839 83.6774 75.3507 83.6774ZM86.7493 84.6718V83.7769L90.1101 80.0979C90.5045 79.667 90.8293 79.2925 91.0845 78.9743C91.3397 78.6528 91.5286 78.3512 91.6513 78.0695C91.7772 77.7844 91.8402 77.4861 91.8402 77.1746C91.8402 76.8166 91.754 76.5067 91.5817 76.2449C91.4126 75.9831 91.1806 75.7809 90.8857 75.6384C90.5907 75.4959 90.2592 75.4246 89.8913 75.4246C89.5002 75.4246 89.1589 75.5058 88.8672 75.6682C88.5788 75.8273 88.3551 76.051 88.196 76.3394C88.0402 76.6277 87.9624 76.9658 87.9624 77.3536H86.7891C86.7891 76.757 86.9266 76.2333 87.2017 75.7825C87.4768 75.3318 87.8513 74.9805 88.3253 74.7286C88.8026 74.4767 89.3378 74.3507 89.9311 74.3507C90.5277 74.3507 91.0563 74.4767 91.517 74.7286C91.9777 74.9805 92.339 75.3202 92.6009 75.7477C92.8627 76.1753 92.9936 76.6509 92.9936 77.1746C92.9936 77.5491 92.9257 77.9154 92.7898 78.2733C92.6572 78.628 92.4252 79.024 92.0938 79.4615C91.7656 79.8957 91.3099 80.426 90.7266 81.0524L88.4396 83.4985V83.578H93.1726V84.6718H86.7493ZM98.5469 84.811C97.7978 84.811 97.1598 84.6071 96.6328 84.1995C96.1058 83.7885 95.7031 83.1935 95.4247 82.4147C95.1463 81.6325 95.0071 80.6879 95.0071 79.5808C95.0071 78.4805 95.1463 77.5408 95.4247 76.762C95.7064 75.9798 96.1108 75.3832 96.6378 74.9722C97.1681 74.5579 97.8045 74.3507 98.5469 74.3507C99.2893 74.3507 99.924 74.5579 100.451 74.9722C100.981 75.3832 101.386 75.9798 101.664 76.762C101.946 77.5408 102.087 78.4805 102.087 79.5808C102.087 80.6879 101.947 81.6325 101.669 82.4147C101.391 83.1935 100.988 83.7885 100.461 84.1995C99.9339 84.6071 99.2959 84.811 98.5469 84.811ZM98.5469 83.7172C99.2893 83.7172 99.866 83.3593 100.277 82.6433C100.688 81.9274 100.893 80.9066 100.893 79.5808C100.893 78.6992 100.799 77.9485 100.61 77.3287C100.424 76.7089 100.156 76.2366 99.8047 75.9118C99.4567 75.587 99.0374 75.4246 98.5469 75.4246C97.8111 75.4246 97.236 75.7875 96.8217 76.5134C96.4074 77.2359 96.2003 78.2584 96.2003 79.5808C96.2003 80.4625 96.2931 81.2115 96.4787 81.828C96.6643 82.4445 96.9311 82.9135 97.2791 83.235C97.6304 83.5565 98.053 83.7172 98.5469 83.7172ZM103.976 84.6718V83.7769L107.337 80.0979C107.731 79.667 108.056 79.2925 108.311 78.9743C108.566 78.6528 108.755 78.3512 108.878 78.0695C109.004 77.7844 109.067 77.4861 109.067 77.1746C109.067 76.8166 108.981 76.5067 108.808 76.2449C108.639 75.9831 108.407 75.7809 108.112 75.6384C107.817 75.4959 107.486 75.4246 107.118 75.4246C106.727 75.4246 106.385 75.5058 106.094 75.6682C105.805 75.8273 105.582 76.051 105.423 76.3394C105.267 76.6277 105.189 76.9658 105.189 77.3536H104.016C104.016 76.757 104.153 76.2333 104.428 75.7825C104.703 75.3318 105.078 74.9805 105.552 74.7286C106.029 74.4767 106.564 74.3507 107.158 74.3507C107.754 74.3507 108.283 74.4767 108.744 74.7286C109.204 74.9805 109.566 75.3202 109.827 75.7477C110.089 76.1753 110.22 76.6509 110.22 77.1746C110.22 77.5491 110.152 77.9154 110.016 78.2733C109.884 78.628 109.652 79.024 109.32 79.4615C108.992 79.8957 108.536 80.426 107.953 81.0524L105.666 83.4985V83.578H110.399V84.6718H103.976ZM115.773 84.811C115.024 84.811 114.386 84.6071 113.859 84.1995C113.332 83.7885 112.93 83.1935 112.651 82.4147C112.373 81.6325 112.234 80.6879 112.234 79.5808C112.234 78.4805 112.373 77.5408 112.651 76.762C112.933 75.9798 113.337 75.3832 113.864 74.9722C114.395 74.5579 115.031 74.3507 115.773 74.3507C116.516 74.3507 117.151 74.5579 117.678 74.9722C118.208 75.3832 118.612 75.9798 118.891 76.762C119.172 77.5408 119.313 78.4805 119.313 79.5808C119.313 80.6879 119.174 81.6325 118.896 82.4147C118.617 83.1935 118.214 83.7885 117.688 84.1995C117.161 84.6071 116.522 84.811 115.773 84.811ZM115.773 83.7172C116.516 83.7172 117.093 83.3593 117.504 82.6433C117.915 81.9274 118.12 80.9066 118.12 79.5808C118.12 78.6992 118.026 77.9485 117.837 77.3287C117.651 76.7089 117.383 76.2366 117.031 75.9118C116.683 75.587 116.264 75.4246 115.773 75.4246C115.038 75.4246 114.463 75.7875 114.048 76.5134C113.634 77.2359 113.427 78.2584 113.427 79.5808C113.427 80.4625 113.52 81.2115 113.705 81.828C113.891 82.4445 114.158 82.9135 114.506 83.235C114.857 83.5565 115.28 83.7172 115.773 83.7172ZM133.393 74.4899V84.6718H132.2L126.651 76.6774H126.552V84.6718H125.319V74.4899H126.512L132.08 82.5041H132.18V74.4899H133.393ZM138.903 84.8308C138.167 84.8308 137.532 84.6684 136.998 84.3436C136.468 84.0155 136.059 83.5581 135.77 82.9715C135.485 82.3815 135.343 81.6954 135.343 80.9132C135.343 80.131 135.485 79.4416 135.77 78.845C136.059 78.2451 136.46 77.7778 136.974 77.4431C137.491 77.105 138.094 76.936 138.783 76.936C139.181 76.936 139.574 77.0022 139.961 77.1348C140.349 77.2674 140.702 77.4828 141.02 77.7811C141.339 78.0761 141.592 78.4672 141.781 78.9544C141.97 79.4416 142.064 80.0415 142.064 80.7541V81.2513H136.178V80.2371H140.871C140.871 79.8062 140.785 79.4218 140.613 79.0837C140.444 78.7456 140.202 78.4788 139.887 78.2833C139.575 78.0877 139.207 77.9899 138.783 77.9899C138.316 77.9899 137.912 78.1059 137.57 78.3379C137.232 78.5666 136.972 78.8649 136.79 79.2328C136.607 79.6007 136.516 79.9951 136.516 80.4161V81.0922C136.516 81.6689 136.616 82.1578 136.814 82.5588C137.017 82.9566 137.297 83.2598 137.655 83.4686C138.013 83.6741 138.429 83.7769 138.903 83.7769C139.211 83.7769 139.489 83.7338 139.738 83.6476C139.99 83.5581 140.207 83.4255 140.389 83.2499C140.571 83.0709 140.712 82.8488 140.812 82.5837L141.945 82.9019C141.826 83.2863 141.625 83.6244 141.344 83.9161C141.062 84.2044 140.714 84.4298 140.3 84.5922C139.885 84.7513 139.42 84.8308 138.903 84.8308ZM144.519 77.0354L146.349 80.1575L148.178 77.0354H149.531L147.065 80.8536L149.531 84.6718H148.178L146.349 81.7087L144.519 84.6718H143.167L145.593 80.8536L143.167 77.0354H144.519ZM153.993 84.8308C153.277 84.8308 152.66 84.6618 152.143 84.3237C151.626 83.9857 151.228 83.52 150.95 82.9267C150.672 82.3334 150.532 81.6557 150.532 80.8933C150.532 80.1178 150.675 79.4334 150.96 78.8401C151.248 78.2435 151.649 77.7778 152.163 77.4431C152.68 77.105 153.283 76.936 153.973 76.936C154.51 76.936 154.993 77.0354 155.424 77.2343C155.855 77.4331 156.208 77.7115 156.483 78.0695C156.758 78.4274 156.929 78.845 156.995 79.3223H155.822C155.733 78.9743 155.534 78.6661 155.225 78.3976C154.921 78.1258 154.51 77.9899 153.993 77.9899C153.535 77.9899 153.134 78.1093 152.789 78.3479C152.448 78.5832 152.181 78.9163 151.989 79.3472C151.8 79.7747 151.706 80.2769 151.706 80.8536C151.706 81.4435 151.798 81.9573 151.984 82.3948C152.173 82.8323 152.438 83.172 152.779 83.4139C153.124 83.6559 153.529 83.7769 153.993 83.7769C154.297 83.7769 154.574 83.7238 154.823 83.6178C155.071 83.5117 155.282 83.3593 155.454 83.1604C155.627 82.9615 155.749 82.7229 155.822 82.4445H156.995C156.929 82.8952 156.765 83.3013 156.503 83.6625C156.245 84.0205 155.902 84.3055 155.474 84.5176C155.05 84.7264 154.556 84.8308 153.993 84.8308ZM161.912 84.8308C161.176 84.8308 160.542 84.6684 160.008 84.3436C159.478 84.0155 159.069 83.5581 158.78 82.9715C158.495 82.3815 158.353 81.6954 158.353 80.9132C158.353 80.131 158.495 79.4416 158.78 78.845C159.069 78.2451 159.47 77.7778 159.983 77.4431C160.5 77.105 161.104 76.936 161.793 76.936C162.191 76.936 162.583 77.0022 162.971 77.1348C163.359 77.2674 163.712 77.4828 164.03 77.7811C164.348 78.0761 164.602 78.4672 164.791 78.9544C164.98 79.4416 165.074 80.0415 165.074 80.7541V81.2513H159.188V80.2371H163.881C163.881 79.8062 163.795 79.4218 163.623 79.0837C163.453 78.7456 163.212 78.4788 162.897 78.2833C162.585 78.0877 162.217 77.9899 161.793 77.9899C161.326 77.9899 160.921 78.1059 160.58 78.3379C160.242 78.5666 159.982 78.8649 159.799 79.2328C159.617 79.6007 159.526 79.9951 159.526 80.4161V81.0922C159.526 81.6689 159.625 82.1578 159.824 82.5588C160.026 82.9566 160.306 83.2598 160.664 83.4686C161.022 83.6741 161.438 83.7769 161.912 83.7769C162.221 83.7769 162.499 83.7338 162.748 83.6476C162.999 83.5581 163.217 83.4255 163.399 83.2499C163.581 83.0709 163.722 82.8488 163.821 82.5837L164.955 82.9019C164.836 83.2863 164.635 83.6244 164.353 83.9161C164.072 84.2044 163.724 84.4298 163.309 84.5922C162.895 84.7513 162.429 84.8308 161.912 84.8308ZM168.032 80.078V84.6718H166.859V77.0354H167.993V78.2286H168.092C168.271 77.8408 168.543 77.5292 168.907 77.2939C169.272 77.0553 169.743 76.936 170.319 76.936C170.836 76.936 171.289 77.042 171.676 77.2541C172.064 77.4629 172.366 77.7811 172.581 78.2087C172.797 78.6329 172.904 79.1699 172.904 79.8195V84.6718H171.731V79.899C171.731 79.2991 171.575 78.8318 171.264 78.497C170.952 78.159 170.525 77.9899 169.981 77.9899C169.607 77.9899 169.272 78.0711 168.977 78.2335C168.685 78.3959 168.455 78.6329 168.286 78.9445C168.117 79.256 168.032 79.6339 168.032 80.078ZM178.369 77.0354V78.0297H174.412V77.0354H178.369ZM175.566 75.2058H176.739V82.4843C176.739 82.8157 176.787 83.0643 176.883 83.23C176.982 83.3924 177.108 83.5018 177.261 83.5581C177.417 83.6111 177.581 83.6377 177.753 83.6377C177.882 83.6377 177.988 83.631 178.071 83.6178C178.154 83.6012 178.22 83.5879 178.27 83.578L178.509 84.632C178.429 84.6618 178.318 84.6916 178.176 84.7215C178.033 84.7546 177.852 84.7712 177.634 84.7712C177.302 84.7712 176.977 84.6999 176.659 84.5574C176.344 84.4149 176.083 84.1978 175.874 83.9061C175.668 83.6145 175.566 83.2466 175.566 82.8024V75.2058ZM185.245 74.4899V84.6718H184.072V74.4899H185.245ZM190.715 77.0354V78.0297H186.758V77.0354H190.715ZM187.911 75.2058H189.085V82.4843C189.085 82.8157 189.133 83.0643 189.229 83.23C189.328 83.3924 189.454 83.5018 189.607 83.5581C189.762 83.6111 189.926 83.6377 190.099 83.6377C190.228 83.6377 190.334 83.631 190.417 83.6178C190.5 83.6012 190.566 83.5879 190.616 83.578L190.854 84.632C190.775 84.6618 190.664 84.6916 190.521 84.7215C190.379 84.7546 190.198 84.7712 189.979 84.7712C189.648 84.7712 189.323 84.6999 189.005 84.5574C188.69 84.4149 188.428 84.1978 188.219 83.9061C188.014 83.6145 187.911 83.2466 187.911 82.8024V75.2058ZM195.282 84.8308C194.645 84.8308 194.083 84.6701 193.596 84.3486C193.109 84.0238 192.728 83.5664 192.453 82.9764C192.178 82.3832 192.04 81.6822 192.04 80.8735C192.04 80.0714 192.178 79.3754 192.453 78.7854C192.728 78.1954 193.111 77.7397 193.601 77.4182C194.092 77.0967 194.658 76.936 195.301 76.936C195.799 76.936 196.191 77.0188 196.48 77.1845C196.771 77.3469 196.993 77.5325 197.146 77.7414C197.302 77.9468 197.423 78.1159 197.509 78.2485H197.608V74.4899H198.782V84.6718H197.648V83.4985H197.509C197.423 83.6377 197.3 83.8133 197.141 84.0254C196.982 84.2343 196.755 84.4215 196.46 84.5872C196.165 84.7496 195.772 84.8308 195.282 84.8308ZM195.441 83.7769C195.911 83.7769 196.309 83.6542 196.634 83.409C196.959 83.1604 197.206 82.8173 197.375 82.3798C197.544 81.939 197.628 81.4303 197.628 80.8536C197.628 80.2835 197.545 79.7847 197.38 79.3571C197.214 78.9263 196.969 78.5915 196.644 78.3529C196.319 78.1109 195.918 77.9899 195.441 77.9899C194.944 77.9899 194.529 78.1175 194.198 78.3727C193.87 78.6246 193.623 78.9677 193.457 79.4019C193.295 79.8327 193.213 80.3166 193.213 80.8536C193.213 81.3971 193.296 81.891 193.462 82.3351C193.631 82.7759 193.88 83.1272 194.208 83.3891C194.539 83.6476 194.95 83.7769 195.441 83.7769ZM201.949 84.7513C201.703 84.7513 201.493 84.6635 201.317 84.4878C201.141 84.3121 201.054 84.1017 201.054 83.8564C201.054 83.6111 201.141 83.4007 201.317 83.225C201.493 83.0494 201.703 82.9615 201.949 82.9615C202.194 82.9615 202.404 83.0494 202.58 83.225C202.756 83.4007 202.843 83.6111 202.843 83.8564C202.843 84.0188 202.802 84.168 202.719 84.3039C202.64 84.4397 202.532 84.5491 202.396 84.632C202.263 84.7115 202.114 84.7513 201.949 84.7513Z" fill="#F5F7FA"/>
<path d="M1.65057 112.672H0.357955L4.09659 102.49H5.36932L9.10795 112.672H7.81534L4.77273 104.101H4.69318L1.65057 112.672ZM2.12784 108.694H7.33807V109.788H2.12784V108.694ZM11.7081 102.49V112.672H10.5348V102.49H11.7081ZM15.0304 102.49V112.672H13.8571V102.49H15.0304ZM21.1168 112.672V105.035H22.2504V106.189H22.3299C22.4691 105.811 22.721 105.504 23.0856 105.269C23.4502 105.034 23.8612 104.916 24.3185 104.916C24.4047 104.916 24.5124 104.918 24.6417 104.921C24.771 104.924 24.8687 104.929 24.935 104.936V106.129C24.8952 106.119 24.8041 106.104 24.6616 106.084C24.5224 106.061 24.3749 106.05 24.2191 106.05C23.8479 106.05 23.5165 106.127 23.2248 106.283C22.9364 106.436 22.7077 106.648 22.5387 106.92C22.373 107.188 22.2901 107.495 22.2901 107.839V112.672H21.1168ZM26.3258 112.672V105.035H27.4991V112.672H26.3258ZM26.9224 103.763C26.6937 103.763 26.4965 103.685 26.3308 103.529C26.1684 103.373 26.0872 103.186 26.0872 102.967C26.0872 102.748 26.1684 102.561 26.3308 102.405C26.4965 102.25 26.6937 102.172 26.9224 102.172C27.1511 102.172 27.3467 102.25 27.5091 102.405C27.6748 102.561 27.7576 102.748 27.7576 102.967C27.7576 103.186 27.6748 103.373 27.5091 103.529C27.3467 103.685 27.1511 103.763 26.9224 103.763ZM32.7305 115.694C32.1637 115.694 31.6765 115.622 31.2688 115.476C30.8612 115.333 30.5214 115.144 30.2496 114.909C29.9812 114.677 29.7674 114.428 29.6083 114.163L30.543 113.507C30.649 113.646 30.7833 113.805 30.9457 113.984C31.1081 114.167 31.3301 114.324 31.6119 114.457C31.8969 114.592 32.2698 114.66 32.7305 114.66C33.3469 114.66 33.8557 114.511 34.2567 114.213C34.6578 113.915 34.8583 113.447 34.8583 112.811V111.26H34.7589C34.6727 111.399 34.5501 111.571 34.391 111.777C34.2352 111.979 34.0098 112.16 33.7148 112.319C33.4232 112.475 33.0288 112.552 32.5316 112.552C31.9151 112.552 31.3616 112.407 30.8711 112.115C30.3839 111.823 29.9978 111.399 29.7127 110.842C29.431 110.285 29.2901 109.609 29.2901 108.814C29.2901 108.032 29.4277 107.35 29.7028 106.77C29.9779 106.187 30.3607 105.736 30.8512 105.418C31.3417 105.097 31.9085 104.936 32.5515 104.936C33.0487 104.936 33.4431 105.019 33.7347 105.185C34.0297 105.347 34.2551 105.533 34.4109 105.741C34.57 105.947 34.6926 106.116 34.7788 106.248H34.8981V105.035H36.0316V112.891C36.0316 113.547 35.8825 114.08 35.5842 114.491C35.2892 114.906 34.8915 115.209 34.391 115.401C33.8938 115.597 33.3403 115.694 32.7305 115.694ZM32.6907 111.498C33.1613 111.498 33.5591 111.391 33.8839 111.175C34.2087 110.96 34.4556 110.65 34.6246 110.246C34.7937 109.841 34.8782 109.357 34.8782 108.794C34.8782 108.244 34.7953 107.758 34.6296 107.337C34.4639 106.916 34.2186 106.587 33.8938 106.348C33.569 106.109 33.168 105.99 32.6907 105.99C32.1935 105.99 31.7792 106.116 31.4478 106.368C31.1197 106.62 30.8728 106.958 30.707 107.382C30.5446 107.806 30.4634 108.277 30.4634 108.794C30.4634 109.324 30.5463 109.793 30.712 110.201C30.881 110.605 31.1296 110.923 31.4577 111.155C31.7892 111.384 32.2002 111.498 32.6907 111.498ZM39.3526 108.078V112.672H38.1793V102.49H39.3526V106.229H39.4521C39.631 105.834 39.8995 105.521 40.2575 105.289C40.6187 105.054 41.0993 104.936 41.6992 104.936C42.2196 104.936 42.6753 105.04 43.0664 105.249C43.4575 105.455 43.7608 105.771 43.9762 106.199C44.195 106.623 44.3043 107.163 44.3043 107.819V112.672H43.131V107.899C43.131 107.292 42.9736 106.824 42.6587 106.492C42.3472 106.157 41.9147 105.99 41.3612 105.99C40.9767 105.99 40.632 106.071 40.3271 106.234C40.0254 106.396 39.7868 106.633 39.6112 106.944C39.4388 107.256 39.3526 107.634 39.3526 108.078ZM49.7718 105.035V106.03H45.8145V105.035H49.7718ZM46.9679 103.206H48.1412V110.484C48.1412 110.816 48.1892 111.064 48.2853 111.23C48.3848 111.392 48.5107 111.502 48.6632 111.558C48.819 111.611 48.983 111.638 49.1554 111.638C49.2846 111.638 49.3907 111.631 49.4735 111.618C49.5564 111.601 49.6227 111.588 49.6724 111.578L49.911 112.632C49.8315 112.662 49.7205 112.692 49.5779 112.721C49.4354 112.755 49.2548 112.771 49.036 112.771C48.7046 112.771 48.3798 112.7 48.0616 112.557C47.7467 112.415 47.4849 112.198 47.2761 111.906C47.0706 111.614 46.9679 111.247 46.9679 110.802V103.206ZM56.8091 106.746L55.7551 107.044C55.6889 106.868 55.5911 106.698 55.4618 106.532C55.3359 106.363 55.1635 106.224 54.9448 106.114C54.726 106.005 54.446 105.95 54.1046 105.95C53.6373 105.95 53.2478 106.058 52.9363 106.273C52.628 106.485 52.4739 106.756 52.4739 107.084C52.4739 107.375 52.58 107.606 52.7921 107.775C53.0042 107.944 53.3356 108.085 53.7864 108.197L54.9199 108.476C55.6027 108.641 56.1114 108.895 56.4462 109.236C56.781 109.574 56.9483 110.01 56.9483 110.544C56.9483 110.981 56.8224 111.373 56.5705 111.717C56.3219 112.062 55.9739 112.334 55.5265 112.533C55.079 112.731 54.5587 112.831 53.9654 112.831C53.1865 112.831 52.5418 112.662 52.0314 112.324C51.521 111.986 51.1979 111.492 51.062 110.842L52.1756 110.564C52.2817 110.975 52.4822 111.283 52.7772 111.489C53.0755 111.694 53.4649 111.797 53.9455 111.797C54.4924 111.797 54.9266 111.681 55.248 111.449C55.5729 111.213 55.7353 110.932 55.7353 110.604C55.7353 110.338 55.6425 110.116 55.4569 109.937C55.2712 109.755 54.9862 109.619 54.6017 109.53L53.329 109.231C52.6297 109.066 52.1159 108.809 51.7878 108.461C51.463 108.109 51.3006 107.67 51.3006 107.143C51.3006 106.712 51.4216 106.331 51.6635 106C51.9088 105.668 52.2419 105.408 52.6628 105.219C53.0871 105.03 53.5676 104.936 54.1046 104.936C54.8603 104.936 55.4535 105.102 55.8844 105.433C56.3186 105.765 56.6268 106.202 56.8091 106.746ZM62.652 112.672V105.035H63.7855V106.189H63.8651C64.0043 105.811 64.2562 105.504 64.6207 105.269C64.9853 105.034 65.3963 104.916 65.8537 104.916C65.9399 104.916 66.0476 104.918 66.1768 104.921C66.3061 104.924 66.4039 104.929 66.4702 104.936V106.129C66.4304 106.119 66.3393 106.104 66.1967 106.084C66.0575 106.061 65.91 106.05 65.7543 106.05C65.383 106.05 65.0516 106.127 64.7599 106.283C64.4716 106.436 64.2429 106.648 64.0739 106.92C63.9081 107.188 63.8253 107.495 63.8253 107.839V112.672H62.652ZM70.8303 112.831C70.0945 112.831 69.4598 112.668 68.9261 112.344C68.3958 112.016 67.9865 111.558 67.6982 110.971C67.4131 110.382 67.2706 109.695 67.2706 108.913C67.2706 108.131 67.4131 107.442 67.6982 106.845C67.9865 106.245 68.3875 105.778 68.9013 105.443C69.4183 105.105 70.0215 104.936 70.7109 104.936C71.1087 104.936 71.5014 105.002 71.8892 105.135C72.277 105.267 72.63 105.483 72.9482 105.781C73.2663 106.076 73.5199 106.467 73.7088 106.954C73.8977 107.442 73.9922 108.042 73.9922 108.754V109.251H68.1058V108.237H72.799C72.799 107.806 72.7128 107.422 72.5405 107.084C72.3714 106.746 72.1295 106.479 71.8146 106.283C71.5031 106.088 71.1352 105.99 70.7109 105.99C70.2436 105.99 69.8393 106.106 69.4979 106.338C69.1598 106.567 68.8996 106.865 68.7173 107.233C68.535 107.601 68.4439 107.995 68.4439 108.416V109.092C68.4439 109.669 68.5433 110.158 68.7422 110.559C68.9444 110.957 69.2244 111.26 69.5824 111.469C69.9403 111.674 70.3563 111.777 70.8303 111.777C71.1385 111.777 71.4169 111.734 71.6655 111.648C71.9174 111.558 72.1345 111.426 72.3168 111.25C72.4991 111.071 72.6399 110.849 72.7393 110.584L73.8729 110.902C73.7536 111.286 73.553 111.624 73.2713 111.916C72.9896 112.204 72.6416 112.43 72.2273 112.592C71.813 112.751 71.3473 112.831 70.8303 112.831ZM81.1861 106.746L80.1321 107.044C80.0658 106.868 79.968 106.698 79.8388 106.532C79.7128 106.363 79.5405 106.224 79.3217 106.114C79.103 106.005 78.8229 105.95 78.4815 105.95C78.0142 105.95 77.6248 106.058 77.3132 106.273C77.005 106.485 76.8509 106.756 76.8509 107.084C76.8509 107.375 76.9569 107.606 77.169 107.775C77.3812 107.944 77.7126 108.085 78.1634 108.197L79.2969 108.476C79.9796 108.641 80.4884 108.895 80.8232 109.236C81.1579 109.574 81.3253 110.01 81.3253 110.544C81.3253 110.981 81.1993 111.373 80.9474 111.717C80.6989 112.062 80.3509 112.334 79.9034 112.533C79.456 112.731 78.9356 112.831 78.3423 112.831C77.5634 112.831 76.9188 112.662 76.4084 112.324C75.898 111.986 75.5748 111.492 75.4389 110.842L76.5526 110.564C76.6586 110.975 76.8591 111.283 77.1541 111.489C77.4524 111.694 77.8419 111.797 78.3224 111.797C78.8693 111.797 79.3035 111.681 79.625 111.449C79.9498 111.213 80.1122 110.932 80.1122 110.604C80.1122 110.338 80.0194 110.116 79.8338 109.937C79.6482 109.755 79.3632 109.619 78.9787 109.53L77.706 109.231C77.0066 109.066 76.4929 108.809 76.1648 108.461C75.84 108.109 75.6776 107.67 75.6776 107.143C75.6776 106.712 75.7985 106.331 76.0405 106C76.2857 105.668 76.6188 105.408 77.0398 105.219C77.464 105.03 77.9446 104.936 78.4815 104.936C79.2372 104.936 79.8305 105.102 80.2614 105.433C80.6955 105.765 81.0038 106.202 81.1861 106.746ZM86.2931 112.831C85.5574 112.831 84.9226 112.668 84.389 112.344C83.8587 112.016 83.4494 111.558 83.161 110.971C82.876 110.382 82.7335 109.695 82.7335 108.913C82.7335 108.131 82.876 107.442 83.161 106.845C83.4494 106.245 83.8504 105.778 84.3642 105.443C84.8812 105.105 85.4844 104.936 86.1738 104.936C86.5716 104.936 86.9643 105.002 87.3521 105.135C87.7399 105.267 88.0929 105.483 88.411 105.781C88.7292 106.076 88.9828 106.467 89.1717 106.954C89.3606 107.442 89.4551 108.042 89.4551 108.754V109.251H83.5687V108.237H88.2619C88.2619 107.806 88.1757 107.422 88.0034 107.084C87.8343 106.746 87.5924 106.479 87.2775 106.283C86.966 106.088 86.5981 105.99 86.1738 105.99C85.7065 105.99 85.3021 106.106 84.9608 106.338C84.6227 106.567 84.3625 106.865 84.1802 107.233C83.9979 107.601 83.9068 107.995 83.9068 108.416V109.092C83.9068 109.669 84.0062 110.158 84.2051 110.559C84.4073 110.957 84.6873 111.26 85.0453 111.469C85.4032 111.674 85.8192 111.777 86.2931 111.777C86.6014 111.777 86.8798 111.734 87.1284 111.648C87.3803 111.558 87.5974 111.426 87.7797 111.25C87.9619 111.071 88.1028 110.849 88.2022 110.584L89.3358 110.902C89.2164 111.286 89.0159 111.624 88.7342 111.916C88.4525 112.204 88.1045 112.43 87.6902 112.592C87.2759 112.751 86.8102 112.831 86.2931 112.831ZM91.2399 112.672V105.035H92.3734V106.189H92.4529C92.5922 105.811 92.844 105.504 93.2086 105.269C93.5732 105.034 93.9842 104.916 94.4416 104.916C94.5278 104.916 94.6355 104.918 94.7647 104.921C94.894 104.924 94.9918 104.929 95.0581 104.936V106.129C95.0183 106.119 94.9271 106.104 94.7846 106.084C94.6454 106.061 94.4979 106.05 94.3422 106.05C93.9709 106.05 93.6395 106.127 93.3478 106.283C93.0595 106.436 92.8308 106.648 92.6618 106.92C92.496 107.188 92.4132 107.495 92.4132 107.839V112.672H91.2399ZM102.926 105.035L100.102 112.672H98.9086L96.0847 105.035H97.3574L99.4654 111.121H99.5449L101.653 105.035H102.926ZM107.403 112.831C106.667 112.831 106.032 112.668 105.498 112.344C104.968 112.016 104.559 111.558 104.27 110.971C103.985 110.382 103.843 109.695 103.843 108.913C103.843 108.131 103.985 107.442 104.27 106.845C104.559 106.245 104.96 105.778 105.474 105.443C105.991 105.105 106.594 104.936 107.283 104.936C107.681 104.936 108.074 105.002 108.461 105.135C108.849 105.267 109.202 105.483 109.52 105.781C109.839 106.076 110.092 106.467 110.281 106.954C110.47 107.442 110.564 108.042 110.564 108.754V109.251H104.678V108.237H109.371C109.371 107.806 109.285 107.422 109.113 107.084C108.944 106.746 108.702 106.479 108.387 106.283C108.075 106.088 107.707 105.99 107.283 105.99C106.816 105.99 106.412 106.106 106.07 106.338C105.732 106.567 105.472 106.865 105.29 107.233C105.107 107.601 105.016 107.995 105.016 108.416V109.092C105.016 109.669 105.116 110.158 105.314 110.559C105.517 110.957 105.797 111.26 106.155 111.469C106.513 111.674 106.929 111.777 107.403 111.777C107.711 111.777 107.989 111.734 108.238 111.648C108.49 111.558 108.707 111.426 108.889 111.25C109.071 111.071 109.212 110.849 109.312 110.584L110.445 110.902C110.326 111.286 110.125 111.624 109.844 111.916C109.562 112.204 109.214 112.43 108.8 112.592C108.385 112.751 107.92 112.831 107.403 112.831ZM115.233 112.831C114.596 112.831 114.035 112.67 113.547 112.349C113.06 112.024 112.679 111.566 112.404 110.976C112.129 110.383 111.991 109.682 111.991 108.873C111.991 108.071 112.129 107.375 112.404 106.785C112.679 106.195 113.062 105.74 113.552 105.418C114.043 105.097 114.61 104.936 115.253 104.936C115.75 104.936 116.143 105.019 116.431 105.185C116.723 105.347 116.945 105.533 117.097 105.741C117.253 105.947 117.374 106.116 117.46 106.248H117.559V102.49H118.733V112.672H117.599V111.498H117.46C117.374 111.638 117.251 111.813 117.092 112.025C116.933 112.234 116.706 112.422 116.411 112.587C116.116 112.75 115.723 112.831 115.233 112.831ZM115.392 111.777C115.863 111.777 116.26 111.654 116.585 111.409C116.91 111.16 117.157 110.817 117.326 110.38C117.495 109.939 117.579 109.43 117.579 108.854C117.579 108.283 117.497 107.785 117.331 107.357C117.165 106.926 116.92 106.591 116.595 106.353C116.27 106.111 115.869 105.99 115.392 105.99C114.895 105.99 114.48 106.118 114.149 106.373C113.821 106.625 113.574 106.968 113.408 107.402C113.246 107.833 113.165 108.317 113.165 108.854C113.165 109.397 113.247 109.891 113.413 110.335C113.582 110.776 113.831 111.127 114.159 111.389C114.49 111.648 114.901 111.777 115.392 111.777Z" fill="#F5F7FA"/>
</g>
<g clip-path="url(#clip2_430_28)">
<path opacity="0.1" fill-rule="evenodd" clip-rule="evenodd" d="M0 173.672C0 164.835 7.16344 157.672 16 157.672C24.8366 157.672 32 164.835 32 173.672C32 182.508 24.8366 189.672 16 189.672C7.16344 189.672 0 182.508 0 173.672Z" fill="white"/>
<path fill-rule="evenodd" clip-rule="evenodd" d="M16.0008 165.138C13.6833 165.138 13.3924 165.149 12.4822 165.19C11.5737 165.232 10.9536 165.375 10.4111 165.586C9.84981 165.804 9.37372 166.096 8.8994 166.57C8.42473 167.045 8.13317 167.521 7.9145 168.082C7.70294 168.625 7.55894 169.245 7.51805 170.153C7.47734 171.063 7.46667 171.354 7.46667 173.672C7.46667 175.989 7.47699 176.279 7.51823 177.19C7.56001 178.098 7.70383 178.718 7.91468 179.261C8.13282 179.822 8.42437 180.298 8.89887 180.772C9.37301 181.247 9.8491 181.539 10.41 181.757C10.9529 181.968 11.5732 182.112 12.4815 182.154C13.3917 182.195 13.6824 182.205 15.9997 182.205C18.3175 182.205 18.6074 182.195 19.5176 182.154C20.4261 182.112 21.0469 181.968 21.5898 181.757C22.1509 181.539 22.6263 181.247 23.1004 180.772C23.5751 180.298 23.8667 179.822 24.0853 179.261C24.2951 178.718 24.4391 178.098 24.4818 177.19C24.5227 176.28 24.5333 175.989 24.5333 173.672C24.5333 171.354 24.5227 171.063 24.4818 170.153C24.4391 169.245 24.2951 168.625 24.0853 168.082C23.8667 167.521 23.5751 167.045 23.1004 166.57C22.6258 166.096 22.1511 165.804 21.5893 165.586C21.0453 165.375 20.4249 165.232 19.5164 165.19C18.6062 165.149 18.3164 165.138 15.9981 165.138H16.0008ZM15.2353 166.676C15.4625 166.676 15.716 166.676 16.0008 166.676C18.2792 166.676 18.5492 166.684 19.449 166.725C20.281 166.763 20.7326 166.902 21.0334 167.019C21.4316 167.174 21.7155 167.359 22.014 167.657C22.3127 167.956 22.4976 168.24 22.6526 168.639C22.7694 168.939 22.9086 169.391 22.9464 170.223C22.9873 171.122 22.9962 171.393 22.9962 173.67C22.9962 175.947 22.9873 176.217 22.9464 177.117C22.9084 177.949 22.7694 178.401 22.6526 178.701C22.4979 179.099 22.3127 179.383 22.014 179.681C21.7153 179.98 21.4318 180.165 21.0334 180.32C20.7329 180.437 20.281 180.576 19.449 180.614C18.5494 180.654 18.2792 180.663 16.0008 180.663C13.7222 180.663 13.4521 180.654 12.5526 180.614C11.7205 180.575 11.269 180.436 10.968 180.319C10.5698 180.165 10.2853 179.98 9.98666 179.681C9.68799 179.382 9.5031 179.099 9.34808 178.7C9.23128 178.4 9.09208 177.948 9.05421 177.116C9.01332 176.217 9.00514 175.947 9.00514 173.668C9.00514 171.389 9.01332 171.12 9.05421 170.221C9.09226 169.389 9.23128 168.937 9.34808 168.636C9.50275 168.238 9.68799 167.954 9.98666 167.655C10.2853 167.356 10.5698 167.171 10.968 167.016C11.2688 166.899 11.7205 166.76 12.5526 166.722C13.3398 166.687 13.6448 166.676 15.2353 166.674V166.676ZM20.5558 168.093C19.9905 168.093 19.5318 168.551 19.5318 169.117C19.5318 169.682 19.9905 170.141 20.5558 170.141C21.1212 170.141 21.5799 169.682 21.5799 169.117C21.5799 168.551 21.1212 168.093 20.5558 168.093ZM16.0008 169.29C13.5807 169.29 11.6186 171.252 11.6186 173.672C11.6186 176.092 13.5807 178.053 16.0008 178.053C18.4209 178.053 20.3824 176.092 20.3824 173.672C20.3824 171.252 18.4209 169.29 16.0008 169.29ZM16.0008 170.827C17.5717 170.827 18.8453 172.101 18.8453 173.672C18.8453 175.243 17.5717 176.516 16.0008 176.516C14.4298 176.516 13.1563 175.243 13.1563 173.672C13.1563 172.101 14.4298 170.827 16.0008 170.827Z" fill="white"/>
<path opacity="0.1" fill-rule="evenodd" clip-rule="evenodd" d="M48 173.672C48 164.835 55.1634 157.672 64 157.672C72.8366 157.672 80 164.835 80 173.672C80 182.508 72.8366 189.672 64 189.672C55.1634 189.672 48 182.508 48 173.672Z" fill="white"/>
<path fill-rule="evenodd" clip-rule="evenodd" d="M72.5333 173.66C72.5333 174.237 72.4746 174.813 72.3592 175.375C72.2467 175.923 72.08 176.462 71.8617 176.977C71.6483 177.482 71.3837 177.969 71.0745 178.424C70.77 178.875 70.4191 179.299 70.0337 179.685C69.6474 180.069 69.2224 180.419 68.7711 180.725C68.3152 181.032 67.8273 181.296 67.3215 181.511C66.806 181.728 66.2664 181.894 65.7184 182.007C65.1559 182.122 64.5776 182.181 63.9996 182.181C63.4213 182.181 62.8429 182.122 62.2812 182.007C61.7324 181.894 61.1928 181.728 60.6778 181.511C60.1719 181.296 59.6836 181.032 59.2277 180.725C58.7764 180.419 58.3514 180.069 57.966 179.685C57.5801 179.299 57.2293 178.875 56.9243 178.424C56.6167 177.969 56.3517 177.482 56.1376 176.977C55.9192 176.462 55.7521 175.923 55.6392 175.375C55.525 174.813 55.4667 174.237 55.4667 173.66C55.4667 173.082 55.525 172.505 55.6392 171.944C55.7521 171.396 55.9192 170.857 56.1376 170.343C56.3518 169.837 56.6168 169.349 56.9243 168.895C57.2293 168.443 57.5802 168.02 57.966 167.634C58.3515 167.249 58.7765 166.9 59.2278 166.595C59.6836 166.286 60.172 166.022 60.6778 165.808C61.1929 165.59 61.7324 165.423 62.2812 165.312C62.8429 165.197 63.4213 165.138 63.9997 165.138C64.5776 165.138 65.1559 165.197 65.7185 165.312C66.2664 165.423 66.806 165.59 67.3215 165.808C67.8273 166.022 68.3153 166.286 68.7711 166.595C69.2224 166.9 69.6475 167.249 70.0337 167.634C70.4191 168.02 70.77 168.443 71.0746 168.895C71.3837 169.349 71.6483 169.837 71.8617 170.343C72.08 170.857 72.2467 171.396 72.3592 171.944C72.4746 172.505 72.5333 173.082 72.5333 173.66ZM60.8903 167.078C58.8581 168.036 57.3413 169.906 56.8684 172.16C57.0605 172.161 60.0973 172.199 63.5962 171.271C62.3349 169.033 60.9874 167.207 60.8903 167.078ZM64.2 172.392C60.4477 173.513 56.8471 173.433 56.718 173.428C56.7159 173.506 56.7121 173.582 56.7121 173.66C56.7121 175.529 57.4184 177.234 58.5793 178.522C58.5768 178.519 60.5711 174.986 64.5038 173.716C64.5988 173.684 64.6955 173.656 64.7913 173.628C64.6084 173.215 64.4087 172.8 64.2 172.392ZM68.8124 168.198C67.5293 167.069 65.8447 166.383 63.9996 166.383C63.4075 166.383 62.8329 166.455 62.2824 166.587C62.3916 166.734 63.7604 168.547 65.0067 170.832C67.7565 169.803 68.7944 168.225 68.8124 168.198ZM65.288 174.834C65.2718 174.839 65.2556 174.844 65.2397 174.85C60.94 176.347 59.5358 179.363 59.5206 179.396C60.7578 180.357 62.3096 180.936 63.9996 180.936C65.0088 180.936 65.9701 180.731 66.8448 180.36C66.7368 179.724 66.3135 177.495 65.288 174.834ZM68.0719 179.695C69.7082 178.592 70.8703 176.841 71.1945 174.813C71.0445 174.765 69.0057 174.12 66.6535 174.497C67.6093 177.12 67.9977 179.256 68.0719 179.695ZM65.5676 171.917C65.7368 172.264 65.9006 172.617 66.0518 172.972C66.1056 173.099 66.1581 173.224 66.2093 173.349C68.7128 173.034 71.1792 173.563 71.2846 173.585C71.2679 171.86 70.65 170.277 69.6275 169.037C69.6137 169.057 68.4449 170.743 65.5676 171.917Z" fill="white"/>
<path opacity="0.1" fill-rule="evenodd" clip-rule="evenodd" d="M96 173.672C96 164.835 103.163 157.672 112 157.672C120.837 157.672 128 164.835 128 173.672C128 182.508 120.837 189.672 112 189.672C103.163 189.672 96 182.508 96 173.672Z" fill="white"/>
<path fill-rule="evenodd" clip-rule="evenodd" d="M111.521 170.677L111.554 171.23L110.995 171.163C108.958 170.903 107.178 170.021 105.668 168.541L104.929 167.807L104.739 168.349C104.336 169.558 104.593 170.835 105.433 171.694C105.88 172.168 105.779 172.236 105.007 171.953C104.739 171.863 104.504 171.795 104.481 171.829C104.403 171.908 104.672 172.936 104.884 173.343C105.175 173.908 105.768 174.462 106.417 174.789L106.966 175.049L106.317 175.061C105.69 175.061 105.668 175.072 105.735 175.309C105.959 176.044 106.843 176.823 107.828 177.162L108.521 177.399L107.917 177.761C107.022 178.281 105.97 178.575 104.918 178.597C104.414 178.608 104 178.654 104 178.688C104 178.8 105.365 179.433 106.16 179.682C108.544 180.416 111.375 180.1 113.502 178.846C115.013 177.953 116.523 176.179 117.229 174.462C117.609 173.547 117.99 171.874 117.99 171.072C117.99 170.552 118.023 170.485 118.65 169.863C119.019 169.502 119.366 169.106 119.433 168.993C119.545 168.779 119.534 168.779 118.963 168.971C118.012 169.31 117.878 169.264 118.348 168.756C118.695 168.394 119.109 167.739 119.109 167.547C119.109 167.513 118.941 167.57 118.751 167.671C118.549 167.784 118.102 167.954 117.766 168.055L117.161 168.248L116.613 167.875C116.311 167.671 115.886 167.445 115.662 167.378C115.091 167.219 114.218 167.242 113.703 167.423C112.304 167.931 111.42 169.242 111.521 170.677Z" fill="white"/>
<path opacity="0.1" fill-rule="evenodd" clip-rule="evenodd" d="M144 173.672C144 164.835 151.163 157.672 160 157.672C168.837 157.672 176 164.835 176 173.672C176 182.508 168.837 189.672 160 189.672C151.163 189.672 144 182.508 144 173.672Z" fill="white"/>
<path fill-rule="evenodd" clip-rule="evenodd" d="M166.668 168.171C167.402 168.373 167.98 168.967 168.177 169.721C168.533 171.087 168.533 173.939 168.533 173.939C168.533 173.939 168.533 176.79 168.177 178.156C167.98 178.91 167.402 179.504 166.668 179.706C165.337 180.072 160 180.072 160 180.072C160 180.072 154.663 180.072 153.332 179.706C152.598 179.504 152.019 178.91 151.823 178.156C151.467 176.79 151.467 173.939 151.467 173.939C151.467 173.939 151.467 171.087 151.823 169.721C152.019 168.967 152.598 168.373 153.332 168.171C154.663 167.805 160 167.805 160 167.805C160 167.805 165.337 167.805 166.668 168.171ZM158.4 171.538V176.872L162.667 174.205L158.4 171.538Z" fill="white"/>
</g>
</g>
<defs>
<clipPath id="clip0_430_28">
<rect width="350" height="189.672" fill="white"/>
</clipPath>
<clipPath id="clip1_430_28">
<rect width="350" height="48" fill="white" transform="translate(0 69.6718)"/>
</clipPath>
<clipPath id="clip2_430_28">
<rect width="176" height="32" fill="white" transform="translate(0 157.672)"/>
</clipPath>
</defs>
</svg>
