<svg width="540" height="160" viewBox="0 0 540 160" fill="none" xmlns="http://www.w3.org/2000/svg">
<g clip-path="url(#clip0_16_1334)">
<g clip-path="url(#clip1_16_1334)">
<path d="M23.2958 35.5471L23.9031 35.0361C25.7081 33.5177 27.0026 31.4809 27.6109 29.2019C28.2193 26.9229 28.1121 24.5119 27.304 22.2959C26.4958 20.0799 25.0258 18.166 23.0932 16.8136C21.1605 15.4613 18.8588 14.7359 16.5 14.7359C14.1412 14.7359 11.8394 15.4613 9.90681 16.8136C7.97418 18.166 6.50414 20.0799 5.69599 22.2959C4.88785 24.5119 4.78068 26.9229 5.38904 29.2019C5.99739 31.4809 7.29183 33.5177 9.09686 35.0361L9.70421 35.5471L8.98113 35.8743C6.00796 37.2197 3.44947 39.3371 1.57166 42.0061L23.2958 35.5471ZM23.2958 35.5471L24.0188 35.8743M23.2958 35.5471L24.0188 35.8743M24.0188 35.8743C26.9921 37.2198 29.5507 39.3373 31.4285 42.0065L31.4357 42.0166L31.4433 42.0264C31.5892 42.2133 31.6956 42.4279 31.756 42.6571C31.8165 42.8864 31.8297 43.1255 31.7949 43.36C31.7601 43.5945 31.678 43.8195 31.5536 44.0214C31.4293 44.2232 31.2652 44.3976 31.0713 44.5341C30.8775 44.6706 30.6579 44.7663 30.426 44.8153C30.194 44.8644 29.9545 44.8658 29.722 44.8195C29.4895 44.7732 29.2688 44.6801 29.0734 44.5459C28.8779 44.4118 28.7118 44.2393 28.585 44.0389L28.5786 44.0288L28.5717 44.019C27.211 42.0809 25.4036 40.4989 23.3024 39.4068C21.2013 38.3147 18.868 37.7446 16.5 37.7446C14.1319 37.7446 11.7987 38.3147 9.69752 39.4068C7.59634 40.4989 5.789 42.0809 4.42827 44.0189L4.42716 44.0205C4.2672 44.2503 4.05392 44.4378 3.80561 44.567C3.55729 44.6962 3.28135 44.7633 3.00142 44.7625L2.99836 44.7625C2.63935 44.7637 2.28905 44.652 1.99698 44.4432L1.99458 44.4415M24.0188 35.8743L1.99458 44.4415M1.99458 44.4415C1.61601 44.1743 1.35888 43.7678 1.2796 43.3113C1.20034 42.8548 1.30529 42.3856 1.57142 42.0065L1.99458 44.4415ZM46.2901 44.4391L46.2901 44.4391C46.4786 44.3084 46.6393 44.1415 46.7628 43.9481C46.8863 43.7547 46.9701 43.5387 47.0093 43.3126C47.0486 43.0865 47.0425 42.8549 46.9915 42.6312C46.9404 42.4075 46.8454 42.1962 46.712 42.0096L46.7098 42.0065C44.832 39.3373 42.2734 37.2198 39.3001 35.8743L38.575 35.5462L39.1853 35.0353C40.9952 33.5204 42.2942 31.4845 42.9055 29.2049C43.5168 26.9252 43.4107 24.5125 42.6016 22.2953C41.7924 20.0781 40.3197 18.1641 38.3838 16.814C36.4479 15.4639 34.1429 14.7432 31.7827 14.75L31.7804 14.75C30.7301 14.7483 29.6846 14.8933 28.6744 15.1809L28.6654 15.1835L28.6654 15.1834C28.441 15.2428 28.2307 15.3462 28.0466 15.4876C27.8626 15.6291 27.7086 15.8057 27.5935 16.0073C27.4783 16.2088 27.4045 16.4313 27.3762 16.6616C27.3478 16.892 27.3656 17.1257 27.4285 17.3492C27.4914 17.5726 27.5981 17.7813 27.7424 17.9631L27.3639 18.2635L27.7424 17.9631C27.8867 18.1449 28.0657 18.2962 28.269 18.4081C28.4723 18.5201 28.6959 18.5905 28.9267 18.6152C29.1575 18.6399 29.3909 18.6185 29.6133 18.5521L29.6191 18.5504L29.6191 18.5504C30.3225 18.3498 31.0506 18.2486 31.7822 18.25M46.2901 44.4391L43.4437 44.3063L43.8524 44.0182C43.8523 44.018 43.8521 44.0178 43.852 44.0176C42.4885 42.0834 40.6807 40.5046 38.5805 39.414C36.4801 38.3232 34.1485 37.7526 31.7818 37.75H31.7812C31.3171 37.75 30.872 37.5656 30.5438 37.2374C30.2156 36.9093 30.0312 36.4641 30.0312 36C30.0312 35.5359 30.2156 35.0908 30.5438 34.7626C30.872 34.4344 31.3171 34.25 31.7812 34.25C33.903 34.25 35.9378 33.4072 37.4381 31.9069C38.9384 30.4066 39.7812 28.3717 39.7812 26.25C39.7812 24.1283 38.9384 22.0934 37.4381 20.5932C35.938 19.0931 33.9036 18.2503 31.7822 18.25M46.2901 44.4391L46.2842 44.4432M46.2901 44.4391L46.2842 44.4432M31.7822 18.25L31.7812 18.75V18.25C31.7815 18.25 31.7819 18.25 31.7822 18.25ZM39.5062 35.4188L39.7124 34.9632C39.7811 34.9944 39.8497 35.0259 39.918 35.0578C39.7838 35.181 39.6465 35.3014 39.5062 35.4188ZM39.5062 35.4188L39.8272 35.8022C39.8862 35.7527 39.9448 35.7028 40.0029 35.6523C39.8386 35.5721 39.6731 35.4943 39.5062 35.4188ZM46.2842 44.4432C45.9923 44.6519 45.6423 44.7636 45.2835 44.7625L46.2842 44.4432ZM9.84823 21.8054C8.96918 23.121 8.49998 24.6678 8.49998 26.25C8.49998 28.3717 9.34284 30.4066 10.8431 31.9069C12.3434 33.4072 14.3783 34.25 16.5 34.25C18.0822 34.25 19.629 33.7808 20.9445 32.9018C22.2601 32.0227 23.2855 30.7733 23.891 29.3115C24.4965 27.8497 24.6549 26.2411 24.3463 24.6893C24.0376 23.1374 23.2757 21.712 22.1568 20.5932C21.038 19.4743 19.6126 18.7124 18.0607 18.4037C16.5089 18.095 14.9003 18.2535 13.4385 18.859C11.9767 19.4645 10.7273 20.4899 9.84823 21.8054Z" fill="#4CAF4F" stroke="#4CAF4F"/>
<g clip-path="url(#clip2_16_1334)">
<path d="M65.6506 28V24.8977L72.8991 18.1861C73.5156 17.5895 74.0327 17.0526 74.4503 16.5753C74.8745 16.098 75.196 15.6307 75.4148 15.1733C75.6335 14.7093 75.7429 14.2088 75.7429 13.6719C75.7429 13.0753 75.607 12.5616 75.3352 12.1307C75.0634 11.6932 74.6922 11.3584 74.2216 11.1264C73.7509 10.8878 73.2173 10.7685 72.6207 10.7685C71.9976 10.7685 71.4541 10.8944 70.9901 11.1463C70.526 11.3982 70.1681 11.7595 69.9162 12.2301C69.6643 12.7008 69.5384 13.2609 69.5384 13.9105H65.4517C65.4517 12.5781 65.7533 11.4214 66.3565 10.4403C66.9598 9.45928 67.8049 8.70028 68.892 8.16335C69.9792 7.62642 71.232 7.35795 72.6506 7.35795C74.1089 7.35795 75.3783 7.61648 76.4588 8.13352C77.5459 8.64394 78.3911 9.35322 78.9943 10.2614C79.5975 11.1695 79.8991 12.2102 79.8991 13.3835C79.8991 14.1525 79.7467 14.9115 79.4418 15.6605C79.1435 16.4096 78.6098 17.2415 77.8409 18.1562C77.072 19.0644 75.9882 20.1548 74.5895 21.4276L71.6165 24.3409V24.4801H80.1676V28H65.6506ZM87.9308 25.2159L87.8214 26.3097C87.7352 27.1847 87.5695 28.0563 87.3242 28.9247C87.0856 29.7997 86.8337 30.5919 86.5685 31.3011C86.31 32.0104 86.1012 32.5672 85.9421 32.9716H83.1978C83.2972 32.5805 83.4331 32.0336 83.6055 31.331C83.7778 30.6349 83.9402 29.8527 84.0927 28.9844C84.2451 28.116 84.3413 27.2311 84.381 26.3295L84.4308 25.2159H87.9308ZM91.7638 28V24.8977L99.0124 18.1861C99.6289 17.5895 100.146 17.0526 100.564 16.5753C100.988 16.098 101.309 15.6307 101.528 15.1733C101.747 14.7093 101.856 14.2088 101.856 13.6719C101.856 13.0753 101.72 12.5616 101.449 12.1307C101.177 11.6932 100.806 11.3584 100.335 11.1264C99.8642 10.8878 99.3306 10.7685 98.734 10.7685C98.1109 10.7685 97.5674 10.8944 97.1033 11.1463C96.6393 11.3982 96.2814 11.7595 96.0295 12.2301C95.7776 12.7008 95.6516 13.2609 95.6516 13.9105H91.565C91.565 12.5781 91.8666 11.4214 92.4698 10.4403C93.073 9.45928 93.9182 8.70028 95.0053 8.16335C96.0924 7.62642 97.3453 7.35795 98.7638 7.35795C100.222 7.35795 101.492 7.61648 102.572 8.13352C103.659 8.64394 104.504 9.35322 105.108 10.2614C105.711 11.1695 106.012 12.2102 106.012 13.3835C106.012 14.1525 105.86 14.9115 105.555 15.6605C105.257 16.4096 104.723 17.2415 103.954 18.1562C103.185 19.0644 102.101 20.1548 100.703 21.4276L97.7298 24.3409V24.4801H106.281V28H91.7638ZM108.655 24.4205V21.0298L117.156 7.63636H120.08V12.3295H118.349L112.99 20.8111V20.9702H125.071V24.4205H108.655ZM118.429 28V23.3864L118.509 21.8849V7.63636H122.545V28H118.429ZM135.377 28.2784C133.972 28.2784 132.719 28.0199 131.619 27.5028C130.525 26.9858 129.656 26.2732 129.013 25.3651C128.371 24.4569 128.036 23.4162 128.009 22.2429H132.185C132.232 23.0317 132.563 23.6714 133.18 24.1619C133.796 24.6525 134.529 24.8977 135.377 24.8977C136.053 24.8977 136.65 24.7486 137.167 24.4503C137.691 24.1454 138.098 23.7244 138.39 23.1875C138.688 22.6439 138.837 22.0208 138.837 21.3182C138.837 20.6023 138.685 19.9725 138.38 19.429C138.082 18.8854 137.667 18.4612 137.137 18.1562C136.607 17.8513 136 17.6955 135.317 17.6889C134.721 17.6889 134.141 17.8116 133.577 18.0568C133.021 18.3021 132.586 18.6368 132.275 19.0611L128.447 18.375L129.411 7.63636H141.86V11.1562H132.961L132.434 16.2571H132.553C132.911 15.7533 133.451 15.3357 134.174 15.0043C134.897 14.6728 135.705 14.5071 136.6 14.5071C137.826 14.5071 138.92 14.7955 139.881 15.3722C140.843 15.9489 141.602 16.741 142.158 17.7486C142.715 18.7495 142.99 19.9029 142.984 21.2088C142.99 22.581 142.672 23.8007 142.029 24.8679C141.393 25.9285 140.501 26.7637 139.354 27.3736C138.214 27.9768 136.888 28.2784 135.377 28.2784ZM149.974 25.2159L149.864 26.3097C149.778 27.1847 149.612 28.0563 149.367 28.9247C149.129 29.7997 148.877 30.5919 148.612 31.3011C148.353 32.0104 148.144 32.5672 147.985 32.9716H145.241C145.34 32.5805 145.476 32.0336 145.648 31.331C145.821 30.6349 145.983 29.8527 146.136 28.9844C146.288 28.116 146.384 27.2311 146.424 26.3295L146.474 25.2159H149.974ZM160.678 28.2784C159.193 28.2784 157.87 28.0232 156.71 27.5128C155.557 26.9957 154.645 26.2865 153.976 25.3849C153.313 24.4768 152.972 23.4295 152.952 22.2429H157.287C157.313 22.7401 157.476 23.1776 157.774 23.5554C158.079 23.9266 158.483 24.215 158.987 24.4205C159.491 24.6259 160.058 24.7287 160.688 24.7287C161.344 24.7287 161.924 24.6127 162.428 24.3807C162.931 24.1487 163.326 23.8272 163.611 23.4162C163.896 23.0052 164.038 22.5312 164.038 21.9943C164.038 21.4508 163.886 20.9702 163.581 20.5526C163.283 20.1283 162.852 19.7969 162.288 19.5582C161.732 19.3196 161.069 19.2003 160.3 19.2003H158.401V16.0384H160.3C160.949 16.0384 161.523 15.9257 162.02 15.7003C162.524 15.4749 162.915 15.1634 163.193 14.7656C163.472 14.3613 163.611 13.8906 163.611 13.3537C163.611 12.8433 163.488 12.3958 163.243 12.0114C163.004 11.6203 162.666 11.3153 162.229 11.0966C161.798 10.8778 161.294 10.7685 160.717 10.7685C160.134 10.7685 159.6 10.8745 159.116 11.0866C158.633 11.2921 158.245 11.5871 157.953 11.9716C157.661 12.3561 157.506 12.8068 157.486 13.3239H153.359C153.379 12.1506 153.714 11.1165 154.364 10.2216C155.013 9.3267 155.888 8.62737 156.989 8.12358C158.096 7.61316 159.345 7.35795 160.737 7.35795C162.143 7.35795 163.372 7.61316 164.426 8.12358C165.48 8.634 166.299 9.32339 166.882 10.1918C167.472 11.0535 167.764 12.0213 167.757 13.0952C167.764 14.2353 167.409 15.1866 166.693 15.9489C165.984 16.7112 165.059 17.1951 163.919 17.4006V17.5597C165.417 17.7519 166.557 18.2723 167.339 19.1207C168.128 19.9626 168.519 21.0166 168.513 22.2827C168.519 23.4427 168.185 24.4735 167.509 25.375C166.839 26.2765 165.914 26.9858 164.734 27.5028C163.554 28.0199 162.202 28.2784 160.678 28.2784ZM171.299 24.4205V21.0298L179.801 7.63636H182.724V12.3295H180.994L175.635 20.8111V20.9702H187.716V24.4205H171.299ZM181.074 28V23.3864L181.153 21.8849V7.63636H185.19V28H181.074ZM199.17 7.63636V28H194.865V11.723H194.745L190.082 14.6463V10.8281L195.123 7.63636H199.17Z" fill="#4D4D4D"/>
<path d="M65.4091 42.3636H67.0909L71.0455 52.0227H71.1818L75.1364 42.3636H76.8182V54H75.5V45.1591H75.3864L71.75 54H70.4773L66.8409 45.1591H66.7273V54H65.4091V42.3636ZM83.1207 54.1818C82.2798 54.1818 81.5545 53.9962 80.9446 53.625C80.3385 53.25 79.8707 52.7273 79.5412 52.0568C79.2154 51.3826 79.0526 50.5985 79.0526 49.7045C79.0526 48.8106 79.2154 48.0227 79.5412 47.3409C79.8707 46.6553 80.3291 46.1212 80.9162 45.7386C81.5071 45.3523 82.1965 45.1591 82.9844 45.1591C83.4389 45.1591 83.8878 45.2348 84.331 45.3864C84.7741 45.5379 85.1776 45.7841 85.5412 46.125C85.9048 46.4621 86.1946 46.9091 86.4105 47.4659C86.6264 48.0227 86.7344 48.7083 86.7344 49.5227V50.0909H80.0071V48.9318H85.3707C85.3707 48.4394 85.2723 48 85.0753 47.6136C84.8821 47.2273 84.6056 46.9223 84.2457 46.6989C83.8897 46.4754 83.4692 46.3636 82.9844 46.3636C82.4503 46.3636 81.9882 46.4962 81.598 46.7614C81.2116 47.0227 80.9143 47.3636 80.706 47.7841C80.4976 48.2045 80.3935 48.6553 80.3935 49.1364V49.9091C80.3935 50.5682 80.5071 51.1269 80.7344 51.5852C80.9654 52.0398 81.2855 52.3864 81.6946 52.625C82.1037 52.8598 82.5791 52.9773 83.1207 52.9773C83.473 52.9773 83.7912 52.928 84.0753 52.8295C84.3632 52.7273 84.6113 52.5758 84.8196 52.375C85.0279 52.1705 85.1889 51.9167 85.3026 51.6136L86.598 51.9773C86.4616 52.4167 86.2325 52.803 85.9105 53.1364C85.5885 53.4659 85.1908 53.7235 84.7173 53.9091C84.2438 54.0909 83.7116 54.1818 83.1207 54.1818ZM88.7741 54V45.2727H90.0696V46.6364H90.1832C90.3651 46.1705 90.6586 45.8087 91.0639 45.5511C91.4692 45.2898 91.956 45.1591 92.5241 45.1591C93.0999 45.1591 93.5791 45.2898 93.9616 45.5511C94.348 45.8087 94.6491 46.1705 94.8651 46.6364H94.956C95.1795 46.1856 95.5147 45.8277 95.9616 45.5625C96.4086 45.2936 96.9446 45.1591 97.5696 45.1591C98.3499 45.1591 98.9882 45.4034 99.4844 45.892C99.9806 46.3769 100.229 47.1326 100.229 48.1591V54H98.8878V48.1591C98.8878 47.5152 98.7116 47.0549 98.3594 46.7784C98.0071 46.5019 97.5923 46.3636 97.1151 46.3636C96.5014 46.3636 96.026 46.5492 95.6889 46.9205C95.3518 47.2879 95.1832 47.7538 95.1832 48.3182V54H93.8196V48.0227C93.8196 47.5265 93.6586 47.1269 93.3366 46.8239C93.0147 46.517 92.5999 46.3636 92.0923 46.3636C91.7438 46.3636 91.4181 46.4564 91.1151 46.642C90.8158 46.8277 90.5734 47.0852 90.3878 47.4148C90.206 47.7405 90.1151 48.1174 90.1151 48.5455V54H88.7741ZM102.862 54V42.3636H104.203V46.6591H104.317C104.415 46.5076 104.552 46.3144 104.726 46.0795C104.904 45.8409 105.158 45.6288 105.487 45.4432C105.821 45.2538 106.271 45.1591 106.839 45.1591C107.574 45.1591 108.222 45.3428 108.783 45.7102C109.343 46.0777 109.781 46.5985 110.095 47.2727C110.41 47.947 110.567 48.7424 110.567 49.6591C110.567 50.5833 110.41 51.3845 110.095 52.0625C109.781 52.7367 109.345 53.2595 108.788 53.6307C108.232 53.9981 107.589 54.1818 106.862 54.1818C106.302 54.1818 105.853 54.089 105.516 53.9034C105.179 53.714 104.919 53.5 104.737 53.2614C104.555 53.0189 104.415 52.8182 104.317 52.6591H104.158V54H102.862ZM104.18 49.6364C104.18 50.2955 104.277 50.8769 104.47 51.3807C104.663 51.8807 104.946 52.2727 105.317 52.5568C105.688 52.8371 106.143 52.9773 106.68 52.9773C107.241 52.9773 107.709 52.8295 108.084 52.5341C108.463 52.2348 108.747 51.8333 108.936 51.3295C109.129 50.822 109.226 50.2576 109.226 49.6364C109.226 49.0227 109.131 48.4697 108.942 47.9773C108.756 47.4811 108.474 47.089 108.095 46.8011C107.72 46.5095 107.249 46.3636 106.68 46.3636C106.135 46.3636 105.677 46.5019 105.305 46.7784C104.934 47.0511 104.654 47.4337 104.464 47.9261C104.275 48.4148 104.18 48.9848 104.18 49.6364ZM116.277 54.1818C115.436 54.1818 114.711 53.9962 114.101 53.625C113.495 53.25 113.027 52.7273 112.697 52.0568C112.372 51.3826 112.209 50.5985 112.209 49.7045C112.209 48.8106 112.372 48.0227 112.697 47.3409C113.027 46.6553 113.485 46.1212 114.072 45.7386C114.663 45.3523 115.353 45.1591 116.141 45.1591C116.595 45.1591 117.044 45.2348 117.487 45.3864C117.93 45.5379 118.334 45.7841 118.697 46.125C119.061 46.4621 119.351 46.9091 119.567 47.4659C119.783 48.0227 119.891 48.7083 119.891 49.5227V50.0909H113.163V48.9318H118.527C118.527 48.4394 118.429 48 118.232 47.6136C118.038 47.2273 117.762 46.9223 117.402 46.6989C117.046 46.4754 116.625 46.3636 116.141 46.3636C115.607 46.3636 115.144 46.4962 114.754 46.7614C114.368 47.0227 114.071 47.3636 113.862 47.7841C113.654 48.2045 113.55 48.6553 113.55 49.1364V49.9091C113.55 50.5682 113.663 51.1269 113.891 51.5852C114.122 52.0398 114.442 52.3864 114.851 52.625C115.26 52.8598 115.735 52.9773 116.277 52.9773C116.629 52.9773 116.947 52.928 117.232 52.8295C117.519 52.7273 117.768 52.5758 117.976 52.375C118.184 52.1705 118.345 51.9167 118.459 51.6136L119.754 51.9773C119.618 52.4167 119.389 52.803 119.067 53.1364C118.745 53.4659 118.347 53.7235 117.874 53.9091C117.4 54.0909 116.868 54.1818 116.277 54.1818ZM121.93 54V45.2727H123.226V46.5909H123.317C123.476 46.1591 123.764 45.8087 124.18 45.5398C124.597 45.2708 125.067 45.1364 125.589 45.1364C125.688 45.1364 125.811 45.1383 125.959 45.142C126.107 45.1458 126.218 45.1515 126.294 45.1591V46.5227C126.249 46.5114 126.144 46.4943 125.982 46.4716C125.822 46.4451 125.654 46.4318 125.476 46.4318C125.052 46.4318 124.673 46.5208 124.339 46.6989C124.01 46.8731 123.749 47.1155 123.555 47.4261C123.366 47.733 123.271 48.0833 123.271 48.4773V54H121.93ZM134.065 47.2273L132.861 47.5682C132.785 47.3674 132.673 47.1723 132.526 46.983C132.382 46.7898 132.185 46.6307 131.935 46.5057C131.685 46.3807 131.365 46.3182 130.974 46.3182C130.44 46.3182 129.995 46.4413 129.639 46.6875C129.287 46.9299 129.111 47.2386 129.111 47.6136C129.111 47.947 129.232 48.2102 129.474 48.4034C129.717 48.5966 130.096 48.7576 130.611 48.8864L131.906 49.2045C132.687 49.3939 133.268 49.6837 133.651 50.0739C134.033 50.4602 134.224 50.9583 134.224 51.5682C134.224 52.0682 134.08 52.5152 133.793 52.9091C133.509 53.303 133.111 53.6136 132.599 53.8409C132.088 54.0682 131.493 54.1818 130.815 54.1818C129.925 54.1818 129.188 53.9886 128.605 53.6023C128.022 53.2159 127.652 52.6515 127.497 51.9091L128.77 51.5909C128.891 52.0606 129.12 52.4129 129.457 52.6477C129.798 52.8826 130.243 53 130.793 53C131.418 53 131.914 52.8674 132.281 52.6023C132.652 52.3333 132.838 52.0114 132.838 51.6364C132.838 51.3333 132.732 51.0795 132.52 50.875C132.308 50.6667 131.982 50.5114 131.543 50.4091L130.088 50.0682C129.289 49.8788 128.702 49.5852 128.327 49.1875C127.955 48.786 127.77 48.2841 127.77 47.6818C127.77 47.1894 127.908 46.7538 128.185 46.375C128.465 45.9962 128.846 45.6989 129.327 45.483C129.812 45.267 130.361 45.1591 130.974 45.1591C131.838 45.1591 132.516 45.3485 133.009 45.7273C133.505 46.1061 133.857 46.6061 134.065 47.2273Z" fill="#717171"/>
</g>
<path d="M309.904 24.3939L309.903 29.4168V29.4168V29.4752C309.903 29.5918 309.918 29.7048 309.947 29.8125L309.899 30.6303L309.896 30.6742C309.885 30.8659 309.81 31.0335 309.684 31.1598L311.127 30.2149C311.045 30.2014 310.962 30.1722 310.881 30.1277L310.484 29.9119V29.4752V29.4168V24.3939M309.904 24.3939V24.3938L310.194 24.3939L310.484 24.3939M309.904 24.3939C309.904 24.5543 310.034 24.6843 310.194 24.6843C310.354 24.6843 310.484 24.554 310.484 24.3939M309.904 24.3939H310.194H310.484M304.283 23.9449L304.283 23.9449L304.283 23.9449ZM304.283 23.9449C304.07 24.316 303.559 24.4545 303.185 24.2399L304.283 23.9449ZM302.852 24.8176L302.852 24.8172C302.577 24.6588 302.379 24.3994 302.298 24.0954L302.297 24.0949L302.297 24.0948L302.297 24.0933C302.23 23.8428 302.247 23.5807 302.343 23.3432V23.1486C302.172 23.4436 302.127 23.7878 302.215 24.117C302.303 24.4459 302.514 24.7208 302.81 24.8921L302.852 24.8176ZM310.096 31.571L310.156 31.631L310.096 31.571L310.095 31.5717C309.844 31.822 309.508 31.9601 309.155 31.9601C309.154 31.9601 309.154 31.9601 309.154 31.9601C308.674 31.9601 308.253 31.7049 308.019 31.323C307.995 31.3353 307.971 31.3471 307.946 31.3586L310.096 31.571ZM302.919 23.4836C302.838 23.6253 302.817 23.7867 302.859 23.944C302.859 23.944 302.859 23.9441 302.859 23.9441L302.859 23.9443L302.859 23.9449C302.901 24.1012 302.999 24.2308 303.142 24.3142C303.142 24.3143 303.142 24.3143 303.142 24.3143L302.919 23.4836Z" fill="#4CAF4F" stroke="#4CAF4F" stroke-width="1.33333"/>
<path d="M301.125 36.7918C300.947 36.8993 300.716 36.8413 300.609 36.663C300.502 36.4849 300.56 36.2537 300.738 36.1468L301.125 36.7918ZM296.747 32.4271C296.761 32.4007 296.775 32.3761 296.788 32.3532C296.839 32.2609 296.874 32.1984 296.888 32.1733L296.964 32.2132C296.917 32.2976 296.871 32.3803 296.826 32.4615C296.799 32.4516 296.773 32.4402 296.747 32.4271ZM307.155 34.7211C307.308 34.6297 307.415 34.4851 307.458 34.3133C307.501 34.1418 307.474 33.9635 307.383 33.8113L307.155 34.7211Z" fill="#4CAF4F" stroke="#4CAF4F" stroke-width="1.33333"/>
<path d="M312.853 34.0933C312.759 34.035 312.673 33.966 312.598 33.888L311.878 33.5117L311.878 33.5116L311.838 33.4907C311.724 33.4311 311.608 33.4029 311.496 33.4026L312.853 34.0933ZM311.172 32.862C311.172 32.862 311.172 32.8619 311.172 32.8619L311.227 33.0842L311.227 33.0842L311.313 33.4256L311.312 33.4256L311.172 32.862ZM315.387 39.7857C315.387 39.7856 315.387 39.7855 315.387 39.7854L315.387 39.7857ZM310.845 36.1872L310.846 36.188L310.845 36.1872Z" fill="#4CAF4F" stroke="#4CAF4F" stroke-width="1.33333"/>
<g clip-path="url(#clip3_16_1334)">
<path d="M350.342 24.4205V21.0298L358.844 7.63636H361.767V12.3295H360.037L354.678 20.8111V20.9702H366.759V24.4205H350.342ZM360.116 28V23.3864L360.196 21.8849V7.63636H364.233V28H360.116ZM377.442 28.2784C376.395 28.2718 375.384 28.0961 374.41 27.7514C373.442 27.4067 372.574 26.8466 371.805 26.071C371.036 25.2955 370.426 24.268 369.975 22.9886C369.531 21.7093 369.309 20.1383 369.309 18.2756C369.316 16.5653 369.511 15.0374 369.896 13.6918C370.287 12.3395 370.844 11.1927 371.566 10.2514C372.295 9.31013 373.167 8.59422 374.181 8.10369C375.195 7.60653 376.332 7.35795 377.592 7.35795C378.951 7.35795 380.15 7.62311 381.191 8.15341C382.232 8.67708 383.067 9.38968 383.697 10.2912C384.333 11.1927 384.718 12.2036 384.85 13.3239H380.604C380.439 12.6146 380.091 12.0578 379.56 11.6534C379.03 11.2491 378.374 11.0469 377.592 11.0469C376.266 11.0469 375.258 11.6236 374.569 12.777C373.886 13.9304 373.538 15.4981 373.525 17.4801H373.664C373.969 16.8769 374.38 16.3632 374.897 15.9389C375.421 15.508 376.014 15.1799 376.677 14.9545C377.346 14.7225 378.052 14.6065 378.795 14.6065C380.001 14.6065 381.075 14.8916 382.016 15.4616C382.958 16.0251 383.7 16.8007 384.244 17.7884C384.787 18.776 385.059 19.9062 385.059 21.179C385.059 22.5578 384.737 23.7841 384.094 24.858C383.458 25.9318 382.567 26.7737 381.42 27.3835C380.28 27.9867 378.954 28.285 377.442 28.2784ZM377.423 24.8977C378.085 24.8977 378.679 24.7386 379.202 24.4205C379.726 24.1023 380.137 23.6714 380.435 23.1278C380.734 22.5843 380.883 21.9744 380.883 21.2983C380.883 20.6222 380.734 20.0156 380.435 19.4787C380.144 18.9418 379.739 18.5142 379.222 18.196C378.705 17.8778 378.115 17.7188 377.452 17.7188C376.955 17.7188 376.495 17.8116 376.07 17.9972C375.653 18.1828 375.285 18.4413 374.967 18.7727C374.655 19.1042 374.41 19.4886 374.231 19.9261C374.052 20.357 373.962 20.8177 373.962 21.3082C373.962 21.9645 374.112 22.5644 374.41 23.108C374.715 23.6515 375.126 24.0857 375.643 24.4105C376.166 24.7353 376.76 24.8977 377.423 24.8977ZM391.907 25.2159L391.798 26.3097C391.712 27.1847 391.546 28.0563 391.301 28.9247C391.062 29.7997 390.81 30.5919 390.545 31.3011C390.287 32.0104 390.078 32.5672 389.919 32.9716H387.174C387.274 32.5805 387.41 32.0336 387.582 31.331C387.754 30.6349 387.917 29.8527 388.069 28.9844C388.222 28.116 388.318 27.2311 388.358 26.3295L388.407 25.2159H391.907ZM402.611 28.2784C401.126 28.2784 399.804 28.0232 398.644 27.5128C397.49 26.9957 396.579 26.2865 395.909 25.3849C395.247 24.4768 394.905 23.4295 394.885 22.2429H399.221C399.247 22.7401 399.409 23.1776 399.708 23.5554C400.013 23.9266 400.417 24.215 400.921 24.4205C401.425 24.6259 401.991 24.7287 402.621 24.7287C403.277 24.7287 403.857 24.6127 404.361 24.3807C404.865 24.1487 405.259 23.8272 405.544 23.4162C405.829 23.0052 405.972 22.5312 405.972 21.9943C405.972 21.4508 405.819 20.9702 405.515 20.5526C405.216 20.1283 404.785 19.7969 404.222 19.5582C403.665 19.3196 403.002 19.2003 402.233 19.2003H400.334V16.0384H402.233C402.883 16.0384 403.456 15.9257 403.953 15.7003C404.457 15.4749 404.848 15.1634 405.127 14.7656C405.405 14.3613 405.544 13.8906 405.544 13.3537C405.544 12.8433 405.422 12.3958 405.176 12.0114C404.938 11.6203 404.6 11.3153 404.162 11.0966C403.731 10.8778 403.228 10.7685 402.651 10.7685C402.068 10.7685 401.534 10.8745 401.05 11.0866C400.566 11.2921 400.178 11.5871 399.887 11.9716C399.595 12.3561 399.439 12.8068 399.419 13.3239H395.293C395.313 12.1506 395.648 11.1165 396.297 10.2216C396.947 9.3267 397.822 8.62737 398.922 8.12358C400.029 7.61316 401.279 7.35795 402.671 7.35795C404.076 7.35795 405.306 7.61316 406.36 8.12358C407.414 8.634 408.232 9.32339 408.816 10.1918C409.406 11.0535 409.697 12.0213 409.691 13.0952C409.697 14.2353 409.343 15.1866 408.627 15.9489C407.917 16.7112 406.993 17.1951 405.853 17.4006V17.5597C407.351 17.7519 408.491 18.2723 409.273 19.1207C410.062 19.9626 410.453 21.0166 410.446 22.2827C410.453 23.4427 410.118 24.4735 409.442 25.375C408.773 26.2765 407.848 26.9858 406.668 27.5028C405.488 28.0199 404.136 28.2784 402.611 28.2784ZM413.541 28V24.8977L420.79 18.1861C421.406 17.5895 421.923 17.0526 422.341 16.5753C422.765 16.098 423.087 15.6307 423.305 15.1733C423.524 14.7093 423.634 14.2088 423.634 13.6719C423.634 13.0753 423.498 12.5616 423.226 12.1307C422.954 11.6932 422.583 11.3584 422.112 11.1264C421.642 10.8878 421.108 10.7685 420.511 10.7685C419.888 10.7685 419.345 10.8944 418.881 11.1463C418.417 11.3982 418.059 11.7595 417.807 12.2301C417.555 12.7008 417.429 13.2609 417.429 13.9105H413.342C413.342 12.5781 413.644 11.4214 414.247 10.4403C414.85 9.45928 415.696 8.70028 416.783 8.16335C417.87 7.62642 419.123 7.35795 420.541 7.35795C422 7.35795 423.269 7.61648 424.349 8.13352C425.437 8.64394 426.282 9.35322 426.885 10.2614C427.488 11.1695 427.79 12.2102 427.79 13.3835C427.79 14.1525 427.637 14.9115 427.332 15.6605C427.034 16.4096 426.5 17.2415 425.732 18.1562C424.963 19.0644 423.879 20.1548 422.48 21.4276L419.507 24.3409V24.4801H428.058V28H413.541ZM438.775 28.2784C437.243 28.2784 435.881 28.0298 434.688 27.5327C433.501 27.0289 432.57 26.3428 431.894 25.4744C431.218 24.6061 430.88 23.6217 430.88 22.5213C430.88 21.6728 431.072 20.8939 431.456 20.1847C431.847 19.4688 432.378 18.8755 433.047 18.4048C433.717 17.9276 434.466 17.6226 435.294 17.4901V17.3509C434.207 17.1321 433.326 16.6051 432.65 15.7699C431.973 14.928 431.635 13.9503 431.635 12.8366C431.635 11.7827 431.944 10.8447 432.56 10.0227C433.176 9.19413 434.022 8.54451 435.096 8.07386C436.176 7.59659 437.402 7.35795 438.775 7.35795C440.147 7.35795 441.37 7.59659 442.444 8.07386C443.524 8.55114 444.373 9.20407 444.989 10.0327C445.605 10.8546 445.917 11.7893 445.924 12.8366C445.917 13.9569 445.572 14.9347 444.89 15.7699C444.207 16.6051 443.332 17.1321 442.265 17.3509V17.4901C443.08 17.6226 443.819 17.9276 444.482 18.4048C445.151 18.8755 445.682 19.4688 446.073 20.1847C446.471 20.8939 446.673 21.6728 446.679 22.5213C446.673 23.6217 446.331 24.6061 445.655 25.4744C444.979 26.3428 444.044 27.0289 442.851 27.5327C441.665 28.0298 440.306 28.2784 438.775 28.2784ZM438.775 25.1165C439.457 25.1165 440.054 24.9938 440.564 24.7486C441.075 24.4967 441.472 24.152 441.757 23.7145C442.049 23.2704 442.195 22.7599 442.195 22.1832C442.195 21.5933 442.046 21.0729 441.748 20.6222C441.449 20.1648 441.045 19.8068 440.534 19.5483C440.024 19.2831 439.437 19.1506 438.775 19.1506C438.118 19.1506 437.532 19.2831 437.015 19.5483C436.498 19.8068 436.09 20.1648 435.792 20.6222C435.5 21.0729 435.354 21.5933 435.354 22.1832C435.354 22.7599 435.497 23.2704 435.782 23.7145C436.067 24.152 436.468 24.4967 436.985 24.7486C437.502 24.9938 438.098 25.1165 438.775 25.1165ZM438.775 16.0185C439.345 16.0185 439.852 15.9025 440.296 15.6705C440.74 15.4384 441.088 15.117 441.34 14.706C441.592 14.295 441.718 13.821 441.718 13.2841C441.718 12.7538 441.592 12.2898 441.34 11.892C441.088 11.4877 440.743 11.1728 440.306 10.9474C439.868 10.7154 439.358 10.5994 438.775 10.5994C438.198 10.5994 437.687 10.7154 437.243 10.9474C436.799 11.1728 436.451 11.4877 436.199 11.892C435.954 12.2898 435.831 12.7538 435.831 13.2841C435.831 13.821 435.957 14.295 436.209 14.706C436.461 15.117 436.809 15.4384 437.253 15.6705C437.697 15.9025 438.204 16.0185 438.775 16.0185Z" fill="#4D4D4D"/>
<path d="M359.773 46H358.364C358.28 45.5947 358.134 45.2386 357.926 44.9318C357.722 44.625 357.472 44.3674 357.176 44.1591C356.884 43.947 356.561 43.7879 356.205 43.6818C355.848 43.5758 355.477 43.5227 355.091 43.5227C354.386 43.5227 353.748 43.7008 353.176 44.0568C352.608 44.4129 352.155 44.9375 351.818 45.6307C351.485 46.3239 351.318 47.1742 351.318 48.1818C351.318 49.1894 351.485 50.0398 351.818 50.733C352.155 51.4261 352.608 51.9508 353.176 52.3068C353.748 52.6629 354.386 52.8409 355.091 52.8409C355.477 52.8409 355.848 52.7879 356.205 52.6818C356.561 52.5758 356.884 52.4186 357.176 52.2102C357.472 51.9981 357.722 51.7386 357.926 51.4318C358.134 51.1212 358.28 50.7652 358.364 50.3636H359.773C359.667 50.9583 359.473 51.4905 359.193 51.9602C358.913 52.4299 358.564 52.8295 358.148 53.1591C357.731 53.4848 357.263 53.733 356.744 53.9034C356.229 54.0739 355.678 54.1591 355.091 54.1591C354.098 54.1591 353.216 53.9167 352.443 53.4318C351.67 52.947 351.063 52.2576 350.619 51.3636C350.176 50.4697 349.955 49.4091 349.955 48.1818C349.955 46.9545 350.176 45.8939 350.619 45C351.063 44.1061 351.67 43.4167 352.443 42.9318C353.216 42.447 354.098 42.2045 355.091 42.2045C355.678 42.2045 356.229 42.2898 356.744 42.4602C357.263 42.6307 357.731 42.8807 358.148 43.2102C358.564 43.536 358.913 43.9337 359.193 44.4034C359.473 44.8693 359.667 45.4015 359.773 46ZM363.209 42.3636V54H361.868V42.3636H363.209ZM371.165 50.4318V45.2727H372.506V54H371.165V52.5227H371.074C370.869 52.9659 370.551 53.3428 370.119 53.6534C369.688 53.9602 369.142 54.1136 368.483 54.1136C367.938 54.1136 367.453 53.9943 367.028 53.7557C366.604 53.5133 366.271 53.1496 366.028 52.6648C365.786 52.1761 365.665 51.5606 365.665 50.8182V45.2727H367.006V50.7273C367.006 51.3636 367.184 51.8712 367.54 52.25C367.9 52.6288 368.358 52.8182 368.915 52.8182C369.248 52.8182 369.587 52.733 369.932 52.5625C370.28 52.392 370.572 52.1307 370.807 51.7784C371.045 51.4261 371.165 50.9773 371.165 50.4318ZM375.143 54V42.3636H376.484V46.6591H376.598C376.696 46.5076 376.833 46.3144 377.007 46.0795C377.185 45.8409 377.439 45.6288 377.768 45.4432C378.102 45.2538 378.553 45.1591 379.121 45.1591C379.856 45.1591 380.503 45.3428 381.064 45.7102C381.625 46.0777 382.062 46.5985 382.376 47.2727C382.691 47.947 382.848 48.7424 382.848 49.6591C382.848 50.5833 382.691 51.3845 382.376 52.0625C382.062 52.7367 381.626 53.2595 381.07 53.6307C380.513 53.9981 379.871 54.1818 379.143 54.1818C378.583 54.1818 378.134 54.089 377.797 53.9034C377.46 53.714 377.2 53.5 377.018 53.2614C376.837 53.0189 376.696 52.8182 376.598 52.6591H376.439V54H375.143ZM376.462 49.6364C376.462 50.2955 376.558 50.8769 376.751 51.3807C376.945 51.8807 377.227 52.2727 377.598 52.5568C377.969 52.8371 378.424 52.9773 378.962 52.9773C379.522 52.9773 379.99 52.8295 380.365 52.5341C380.744 52.2348 381.028 51.8333 381.217 51.3295C381.411 50.822 381.507 50.2576 381.507 49.6364C381.507 49.0227 381.412 48.4697 381.223 47.9773C381.037 47.4811 380.755 47.089 380.376 46.8011C380.001 46.5095 379.53 46.3636 378.962 46.3636C378.416 46.3636 377.958 46.5019 377.587 46.7784C377.215 47.0511 376.935 47.4337 376.746 47.9261C376.556 48.4148 376.462 48.9848 376.462 49.6364ZM391.081 47.2273L389.876 47.5682C389.801 47.3674 389.689 47.1723 389.541 46.983C389.397 46.7898 389.2 46.6307 388.95 46.5057C388.7 46.3807 388.38 46.3182 387.99 46.3182C387.456 46.3182 387.011 46.4413 386.655 46.6875C386.303 46.9299 386.126 47.2386 386.126 47.6136C386.126 47.947 386.248 48.2102 386.49 48.4034C386.732 48.5966 387.111 48.7576 387.626 48.8864L388.922 49.2045C389.702 49.3939 390.284 49.6837 390.666 50.0739C391.049 50.4602 391.24 50.9583 391.24 51.5682C391.24 52.0682 391.096 52.5152 390.808 52.9091C390.524 53.303 390.126 53.6136 389.615 53.8409C389.104 54.0682 388.509 54.1818 387.831 54.1818C386.941 54.1818 386.204 53.9886 385.621 53.6023C385.037 53.2159 384.668 52.6515 384.513 51.9091L385.786 51.5909C385.907 52.0606 386.136 52.4129 386.473 52.6477C386.814 52.8826 387.259 53 387.808 53C388.433 53 388.929 52.8674 389.297 52.6023C389.668 52.3333 389.854 52.0114 389.854 51.6364C389.854 51.3333 389.748 51.0795 389.536 50.875C389.323 50.6667 388.998 50.5114 388.558 50.4091L387.104 50.0682C386.304 49.8788 385.717 49.5852 385.342 49.1875C384.971 48.786 384.786 48.2841 384.786 47.6818C384.786 47.1894 384.924 46.7538 385.2 46.375C385.481 45.9962 385.861 45.6989 386.342 45.483C386.827 45.267 387.376 45.1591 387.99 45.1591C388.854 45.1591 389.532 45.3485 390.024 45.7273C390.52 46.1061 390.873 46.6061 391.081 47.2273Z" fill="#717171"/>
</g>
</g>
<g clip-path="url(#clip4_16_1334)">
<path d="M40 148V144C40 141.878 39.1571 139.843 37.6569 138.343C36.1566 136.843 34.1217 136 32 136H30C29.4696 136 28.9609 135.789 28.5858 135.414C28.2107 135.039 28 134.53 28 134V124C28 122.939 27.5786 121.922 26.8284 121.172C26.0783 120.421 25.0609 120 24 120C22.9391 120 21.9217 120.421 21.1716 121.172C20.4214 121.922 20 122.939 20 124V142L15.2 135.6C14.8274 135.103 14.3443 134.7 13.7889 134.422C13.2334 134.145 12.621 134 12 134H11.132C9.402 134 8 135.402 8 137.132C8 137.7 8.154 138.258 8.446 138.744L14 148M24 114V112V114ZM36 126H38H36ZM10 126H12H10ZM14.686 116.686L13.272 115.272L14.686 116.686ZM33.314 116.686L34.728 115.272L33.314 116.686Z" fill="#4CAF4F"/>
<path d="M40 148V144C40 141.878 39.1571 139.843 37.6569 138.343C36.1566 136.843 34.1217 136 32 136H30C29.4696 136 28.9609 135.789 28.5858 135.414C28.2107 135.039 28 134.53 28 134V124C28 122.939 27.5786 121.922 26.8284 121.172C26.0783 120.421 25.0609 120 24 120V120C22.9391 120 21.9217 120.421 21.1716 121.172C20.4214 121.922 20 122.939 20 124V142L15.2 135.6C14.8274 135.103 14.3443 134.7 13.7889 134.422C13.2334 134.145 12.621 134 12 134H11.132C9.402 134 8 135.402 8 137.132C8 137.7 8.154 138.258 8.446 138.744L14 148M24 114V112M36 126H38M10 126H12M14.686 116.686L13.272 115.272M33.314 116.686L34.728 115.272" stroke="#4CAF4F" stroke-width="2" stroke-linecap="round" stroke-linejoin="round"/>
<g clip-path="url(#clip5_16_1334)">
<path d="M73.2472 128.278C71.7159 128.278 70.3537 128.03 69.1605 127.533C67.974 127.029 67.0426 126.343 66.3665 125.474C65.6903 124.606 65.3523 123.622 65.3523 122.521C65.3523 121.673 65.5445 120.894 65.929 120.185C66.3201 119.469 66.8504 118.875 67.5199 118.405C68.1894 117.928 68.9384 117.623 69.767 117.49V117.351C68.6799 117.132 67.7983 116.605 67.1222 115.77C66.446 114.928 66.108 113.95 66.108 112.837C66.108 111.783 66.4162 110.845 67.0327 110.023C67.6491 109.194 68.4943 108.545 69.5682 108.074C70.6487 107.597 71.875 107.358 73.2472 107.358C74.6193 107.358 75.8423 107.597 76.9162 108.074C77.9967 108.551 78.8452 109.204 79.4616 110.033C80.0781 110.855 80.3897 111.789 80.3963 112.837C80.3897 113.957 80.045 114.935 79.3622 115.77C78.6795 116.605 77.8045 117.132 76.7372 117.351V117.49C77.5526 117.623 78.2917 117.928 78.9545 118.405C79.6241 118.875 80.1544 119.469 80.5455 120.185C80.9432 120.894 81.1454 121.673 81.152 122.521C81.1454 123.622 80.804 124.606 80.1278 125.474C79.4517 126.343 78.517 127.029 77.3239 127.533C76.1373 128.03 74.7784 128.278 73.2472 128.278ZM73.2472 125.116C73.9299 125.116 74.5265 124.994 75.0369 124.749C75.5473 124.497 75.9451 124.152 76.2301 123.714C76.5218 123.27 76.6676 122.76 76.6676 122.183C76.6676 121.593 76.5185 121.073 76.2202 120.622C75.9219 120.165 75.5175 119.807 75.0071 119.548C74.4967 119.283 73.91 119.151 73.2472 119.151C72.5909 119.151 72.0043 119.283 71.4872 119.548C70.9702 119.807 70.5625 120.165 70.2642 120.622C69.9725 121.073 69.8267 121.593 69.8267 122.183C69.8267 122.76 69.9692 123.27 70.2543 123.714C70.5393 124.152 70.9403 124.497 71.4574 124.749C71.9744 124.994 72.571 125.116 73.2472 125.116ZM73.2472 116.018C73.8172 116.018 74.3243 115.902 74.7685 115.67C75.2126 115.438 75.5606 115.117 75.8125 114.706C76.0644 114.295 76.1903 113.821 76.1903 113.284C76.1903 112.754 76.0644 112.29 75.8125 111.892C75.5606 111.488 75.2159 111.173 74.7784 110.947C74.3409 110.715 73.8305 110.599 73.2472 110.599C72.6705 110.599 72.16 110.715 71.7159 110.947C71.2718 111.173 70.9238 111.488 70.6719 111.892C70.4266 112.29 70.304 112.754 70.304 113.284C70.304 113.821 70.4299 114.295 70.6818 114.706C70.9337 115.117 71.2817 115.438 71.7259 115.67C72.17 115.902 72.6771 116.018 73.2472 116.018ZM84.1623 128V124.898L91.4109 118.186C92.0273 117.589 92.5444 117.053 92.962 116.575C93.3862 116.098 93.7077 115.631 93.9265 115.173C94.1452 114.709 94.2546 114.209 94.2546 113.672C94.2546 113.075 94.1187 112.562 93.8469 112.131C93.5752 111.693 93.204 111.358 92.7333 111.126C92.2627 110.888 91.729 110.768 91.1325 110.768C90.5094 110.768 89.9658 110.894 89.5018 111.146C89.0378 111.398 88.6798 111.759 88.4279 112.23C88.176 112.701 88.0501 113.261 88.0501 113.911H83.9634C83.9634 112.578 84.265 111.421 84.8683 110.44C85.4715 109.459 86.3166 108.7 87.4038 108.163C88.4909 107.626 89.7437 107.358 91.1623 107.358C92.6206 107.358 93.89 107.616 94.9705 108.134C96.0576 108.644 96.9028 109.353 97.506 110.261C98.1093 111.17 98.4109 112.21 98.4109 113.384C98.4109 114.152 98.2584 114.911 97.9535 115.661C97.6552 116.41 97.1216 117.241 96.3526 118.156C95.5837 119.064 94.4999 120.155 93.1012 121.428L90.1282 124.341V124.48H98.6793V128H84.1623ZM109.396 128.278C107.864 128.278 106.502 128.03 105.309 127.533C104.122 127.029 103.191 126.343 102.515 125.474C101.839 124.606 101.501 123.622 101.501 122.521C101.501 121.673 101.693 120.894 102.077 120.185C102.469 119.469 102.999 118.875 103.668 118.405C104.338 117.928 105.087 117.623 105.915 117.49V117.351C104.828 117.132 103.947 116.605 103.271 115.77C102.594 114.928 102.256 113.95 102.256 112.837C102.256 111.783 102.565 110.845 103.181 110.023C103.798 109.194 104.643 108.545 105.717 108.074C106.797 107.597 108.023 107.358 109.396 107.358C110.768 107.358 111.991 107.597 113.065 108.074C114.145 108.551 114.994 109.204 115.61 110.033C116.227 110.855 116.538 111.789 116.545 112.837C116.538 113.957 116.193 114.935 115.511 115.77C114.828 116.605 113.953 117.132 112.886 117.351V117.49C113.701 117.623 114.44 117.928 115.103 118.405C115.772 118.875 116.303 119.469 116.694 120.185C117.092 120.894 117.294 121.673 117.3 122.521C117.294 123.622 116.952 124.606 116.276 125.474C115.6 126.343 114.665 127.029 113.472 127.533C112.286 128.03 110.927 128.278 109.396 128.278ZM109.396 125.116C110.078 125.116 110.675 124.994 111.185 124.749C111.696 124.497 112.094 124.152 112.379 123.714C112.67 123.27 112.816 122.76 112.816 122.183C112.816 121.593 112.667 121.073 112.369 120.622C112.07 120.165 111.666 119.807 111.156 119.548C110.645 119.283 110.058 119.151 109.396 119.151C108.739 119.151 108.153 119.283 107.636 119.548C107.119 119.807 106.711 120.165 106.413 120.622C106.121 121.073 105.975 121.593 105.975 122.183C105.975 122.76 106.118 123.27 106.403 123.714C106.688 124.152 107.089 124.497 107.606 124.749C108.123 124.994 108.719 125.116 109.396 125.116ZM109.396 116.018C109.966 116.018 110.473 115.902 110.917 115.67C111.361 115.438 111.709 115.117 111.961 114.706C112.213 114.295 112.339 113.821 112.339 113.284C112.339 112.754 112.213 112.29 111.961 111.892C111.709 111.488 111.364 111.173 110.927 110.947C110.489 110.715 109.979 110.599 109.396 110.599C108.819 110.599 108.308 110.715 107.864 110.947C107.42 111.173 107.072 111.488 106.82 111.892C106.575 112.29 106.452 112.754 106.452 113.284C106.452 113.821 106.578 114.295 106.83 114.706C107.082 115.117 107.43 115.438 107.874 115.67C108.318 115.902 108.826 116.018 109.396 116.018ZM124.38 125.216L124.271 126.31C124.184 127.185 124.019 128.056 123.773 128.925C123.535 129.8 123.283 130.592 123.018 131.301C122.759 132.01 122.55 132.567 122.391 132.972H119.647C119.746 132.58 119.882 132.034 120.055 131.331C120.227 130.635 120.389 129.853 120.542 128.984C120.694 128.116 120.79 127.231 120.83 126.33L120.88 125.216H124.38ZM134.989 128.278C133.458 128.278 132.096 128.03 130.903 127.533C129.716 127.029 128.785 126.343 128.109 125.474C127.433 124.606 127.094 123.622 127.094 122.521C127.094 121.673 127.287 120.894 127.671 120.185C128.062 119.469 128.593 118.875 129.262 118.405C129.932 117.928 130.681 117.623 131.509 117.49V117.351C130.422 117.132 129.54 116.605 128.864 115.77C128.188 114.928 127.85 113.95 127.85 112.837C127.85 111.783 128.158 110.845 128.775 110.023C129.391 109.194 130.237 108.545 131.31 108.074C132.391 107.597 133.617 107.358 134.989 107.358C136.362 107.358 137.585 107.597 138.658 108.074C139.739 108.551 140.587 109.204 141.204 110.033C141.82 110.855 142.132 111.789 142.138 112.837C142.132 113.957 141.787 114.935 141.104 115.77C140.422 116.605 139.547 117.132 138.479 117.351V117.49C139.295 117.623 140.034 117.928 140.697 118.405C141.366 118.875 141.897 119.469 142.288 120.185C142.685 120.894 142.888 121.673 142.894 122.521C142.888 123.622 142.546 124.606 141.87 125.474C141.194 126.343 140.259 127.029 139.066 127.533C137.879 128.03 136.521 128.278 134.989 128.278ZM134.989 125.116C135.672 125.116 136.269 124.994 136.779 124.749C137.29 124.497 137.687 124.152 137.972 123.714C138.264 123.27 138.41 122.76 138.41 122.183C138.41 121.593 138.261 121.073 137.962 120.622C137.664 120.165 137.26 119.807 136.749 119.548C136.239 119.283 135.652 119.151 134.989 119.151C134.333 119.151 133.746 119.283 133.229 119.548C132.712 119.807 132.305 120.165 132.006 120.622C131.715 121.073 131.569 121.593 131.569 122.183C131.569 122.76 131.711 123.27 131.996 123.714C132.281 124.152 132.683 124.497 133.2 124.749C133.717 124.994 134.313 125.116 134.989 125.116ZM134.989 116.018C135.559 116.018 136.067 115.902 136.511 115.67C136.955 115.438 137.303 115.117 137.555 114.706C137.807 114.295 137.933 113.821 137.933 113.284C137.933 112.754 137.807 112.29 137.555 111.892C137.303 111.488 136.958 111.173 136.521 110.947C136.083 110.715 135.573 110.599 134.989 110.599C134.413 110.599 133.902 110.715 133.458 110.947C133.014 111.173 132.666 111.488 132.414 111.892C132.169 112.29 132.046 112.754 132.046 113.284C132.046 113.821 132.172 114.295 132.424 114.706C132.676 115.117 133.024 115.438 133.468 115.67C133.912 115.902 134.419 116.018 134.989 116.018ZM153.72 128.278C152.672 128.272 151.662 128.096 150.687 127.751C149.719 127.407 148.851 126.847 148.082 126.071C147.313 125.295 146.703 124.268 146.252 122.989C145.808 121.709 145.586 120.138 145.586 118.276C145.593 116.565 145.788 115.037 146.173 113.692C146.564 112.339 147.121 111.193 147.843 110.251C148.573 109.31 149.444 108.594 150.458 108.104C151.473 107.607 152.609 107.358 153.869 107.358C155.228 107.358 156.428 107.623 157.468 108.153C158.509 108.677 159.344 109.39 159.974 110.291C160.61 111.193 160.995 112.204 161.127 113.324H156.882C156.716 112.615 156.368 112.058 155.838 111.653C155.307 111.249 154.651 111.047 153.869 111.047C152.543 111.047 151.536 111.624 150.846 112.777C150.163 113.93 149.815 115.498 149.802 117.48H149.941C150.246 116.877 150.657 116.363 151.174 115.939C151.698 115.508 152.291 115.18 152.954 114.955C153.624 114.723 154.33 114.607 155.072 114.607C156.279 114.607 157.352 114.892 158.294 115.462C159.235 116.025 159.977 116.801 160.521 117.788C161.065 118.776 161.336 119.906 161.336 121.179C161.336 122.558 161.015 123.784 160.372 124.858C159.735 125.932 158.844 126.774 157.697 127.384C156.557 127.987 155.231 128.285 153.72 128.278ZM153.7 124.898C154.363 124.898 154.956 124.739 155.48 124.42C156.003 124.102 156.414 123.671 156.713 123.128C157.011 122.584 157.16 121.974 157.16 121.298C157.16 120.622 157.011 120.016 156.713 119.479C156.421 118.942 156.017 118.514 155.5 118.196C154.983 117.878 154.393 117.719 153.73 117.719C153.233 117.719 152.772 117.812 152.348 117.997C151.93 118.183 151.562 118.441 151.244 118.773C150.932 119.104 150.687 119.489 150.508 119.926C150.329 120.357 150.24 120.818 150.24 121.308C150.24 121.964 150.389 122.564 150.687 123.108C150.992 123.652 151.403 124.086 151.92 124.411C152.444 124.735 153.037 124.898 153.7 124.898ZM165.194 128L173.636 111.295V111.156H163.802V107.636H178.091V111.206L169.639 128H165.194Z" fill="#4D4D4D"/>
<path d="M65.4091 154V142.364H72.4318V143.614H66.8182V147.545H72.0682V148.795H66.8182V152.75H72.5227V154H65.4091ZM81.9261 145.273L78.6989 154H77.3352L74.108 145.273H75.5625L77.9716 152.227H78.0625L80.4716 145.273H81.9261ZM87.0426 154.182C86.2017 154.182 85.4763 153.996 84.8665 153.625C84.2604 153.25 83.7926 152.727 83.4631 152.057C83.1373 151.383 82.9744 150.598 82.9744 149.705C82.9744 148.811 83.1373 148.023 83.4631 147.341C83.7926 146.655 84.2509 146.121 84.8381 145.739C85.429 145.352 86.1184 145.159 86.9062 145.159C87.3608 145.159 87.8097 145.235 88.2528 145.386C88.696 145.538 89.0994 145.784 89.4631 146.125C89.8267 146.462 90.1165 146.909 90.3324 147.466C90.5483 148.023 90.6562 148.708 90.6562 149.523V150.091H83.929V148.932H89.2926C89.2926 148.439 89.1941 148 88.9972 147.614C88.804 147.227 88.5275 146.922 88.1676 146.699C87.8116 146.475 87.3911 146.364 86.9062 146.364C86.3722 146.364 85.91 146.496 85.5199 146.761C85.1335 147.023 84.8362 147.364 84.6278 147.784C84.4195 148.205 84.3153 148.655 84.3153 149.136V149.909C84.3153 150.568 84.429 151.127 84.6562 151.585C84.8873 152.04 85.2074 152.386 85.6165 152.625C86.0256 152.86 86.5009 152.977 87.0426 152.977C87.3949 152.977 87.7131 152.928 87.9972 152.83C88.285 152.727 88.5331 152.576 88.7415 152.375C88.9498 152.17 89.1108 151.917 89.2244 151.614L90.5199 151.977C90.3835 152.417 90.1544 152.803 89.8324 153.136C89.5104 153.466 89.1127 153.723 88.6392 153.909C88.1657 154.091 87.6335 154.182 87.0426 154.182ZM94.0369 148.75V154H92.696V145.273H93.9915V146.636H94.1051C94.3097 146.193 94.6203 145.837 95.0369 145.568C95.4536 145.295 95.9915 145.159 96.6506 145.159C97.2415 145.159 97.7585 145.28 98.2017 145.523C98.6449 145.761 98.9896 146.125 99.2358 146.614C99.482 147.098 99.6051 147.712 99.6051 148.455V154H98.2642V148.545C98.2642 147.86 98.0862 147.326 97.7301 146.943C97.3741 146.557 96.8854 146.364 96.2642 146.364C95.8362 146.364 95.4536 146.456 95.1165 146.642C94.7831 146.828 94.5199 147.098 94.3267 147.455C94.1335 147.811 94.0369 148.242 94.0369 148.75ZM105.851 145.273V146.409H101.328V145.273H105.851ZM102.646 143.182H103.987V151.5C103.987 151.879 104.042 152.163 104.152 152.352C104.266 152.538 104.41 152.663 104.584 152.727C104.762 152.788 104.949 152.818 105.146 152.818C105.294 152.818 105.415 152.811 105.51 152.795C105.605 152.777 105.68 152.761 105.737 152.75L106.01 153.955C105.919 153.989 105.792 154.023 105.629 154.057C105.466 154.095 105.26 154.114 105.01 154.114C104.631 154.114 104.26 154.032 103.896 153.869C103.536 153.706 103.237 153.458 102.999 153.125C102.764 152.792 102.646 152.371 102.646 151.864V143.182ZM112.55 154V142.364H116.618C117.429 142.364 118.097 142.504 118.624 142.784C119.15 143.061 119.542 143.434 119.8 143.903C120.057 144.369 120.186 144.886 120.186 145.455C120.186 145.955 120.097 146.367 119.919 146.693C119.745 147.019 119.514 147.277 119.226 147.466C118.942 147.655 118.633 147.795 118.3 147.886V148C118.656 148.023 119.014 148.148 119.374 148.375C119.733 148.602 120.035 148.928 120.277 149.352C120.519 149.777 120.641 150.295 120.641 150.909C120.641 151.492 120.508 152.017 120.243 152.483C119.978 152.949 119.559 153.318 118.987 153.591C118.415 153.864 117.671 154 116.754 154H112.55ZM113.959 152.75H116.754C117.675 152.75 118.328 152.572 118.714 152.216C119.105 151.856 119.3 151.42 119.3 150.909C119.3 150.515 119.199 150.152 118.999 149.818C118.798 149.481 118.512 149.212 118.141 149.011C117.769 148.807 117.33 148.705 116.822 148.705H113.959V152.75ZM113.959 147.477H116.572C116.997 147.477 117.379 147.394 117.72 147.227C118.065 147.061 118.338 146.826 118.538 146.523C118.743 146.22 118.845 145.864 118.845 145.455C118.845 144.943 118.667 144.509 118.311 144.153C117.955 143.794 117.391 143.614 116.618 143.614H113.959V147.477ZM126.32 154.182C125.532 154.182 124.84 153.994 124.246 153.619C123.655 153.244 123.193 152.72 122.859 152.045C122.53 151.371 122.365 150.583 122.365 149.682C122.365 148.773 122.53 147.979 122.859 147.301C123.193 146.623 123.655 146.097 124.246 145.722C124.84 145.347 125.532 145.159 126.32 145.159C127.107 145.159 127.797 145.347 128.388 145.722C128.982 146.097 129.445 146.623 129.774 147.301C130.107 147.979 130.274 148.773 130.274 149.682C130.274 150.583 130.107 151.371 129.774 152.045C129.445 152.72 128.982 153.244 128.388 153.619C127.797 153.994 127.107 154.182 126.32 154.182ZM126.32 152.977C126.918 152.977 127.411 152.824 127.797 152.517C128.183 152.21 128.469 151.807 128.655 151.307C128.84 150.807 128.933 150.265 128.933 149.682C128.933 149.098 128.84 148.555 128.655 148.051C128.469 147.547 128.183 147.14 127.797 146.83C127.411 146.519 126.918 146.364 126.32 146.364C125.721 146.364 125.229 146.519 124.842 146.83C124.456 147.14 124.17 147.547 123.984 148.051C123.799 148.555 123.706 149.098 123.706 149.682C123.706 150.265 123.799 150.807 123.984 151.307C124.17 151.807 124.456 152.21 124.842 152.517C125.229 152.824 125.721 152.977 126.32 152.977ZM135.866 154.182C135.079 154.182 134.387 153.994 133.793 153.619C133.202 153.244 132.74 152.72 132.406 152.045C132.077 151.371 131.912 150.583 131.912 149.682C131.912 148.773 132.077 147.979 132.406 147.301C132.74 146.623 133.202 146.097 133.793 145.722C134.387 145.347 135.079 145.159 135.866 145.159C136.654 145.159 137.344 145.347 137.935 145.722C138.529 146.097 138.991 146.623 139.321 147.301C139.654 147.979 139.821 148.773 139.821 149.682C139.821 150.583 139.654 151.371 139.321 152.045C138.991 152.72 138.529 153.244 137.935 153.619C137.344 153.994 136.654 154.182 135.866 154.182ZM135.866 152.977C136.465 152.977 136.957 152.824 137.344 152.517C137.73 152.21 138.016 151.807 138.202 151.307C138.387 150.807 138.48 150.265 138.48 149.682C138.48 149.098 138.387 148.555 138.202 148.051C138.016 147.547 137.73 147.14 137.344 146.83C136.957 146.519 136.465 146.364 135.866 146.364C135.268 146.364 134.776 146.519 134.389 146.83C134.003 147.14 133.717 147.547 133.531 148.051C133.346 148.555 133.253 149.098 133.253 149.682C133.253 150.265 133.346 150.807 133.531 151.307C133.717 151.807 134.003 152.21 134.389 152.517C134.776 152.824 135.268 152.977 135.866 152.977ZM143.118 150.818L143.095 149.159H143.368L147.186 145.273H148.845L144.777 149.386H144.663L143.118 150.818ZM141.868 154V142.364H143.209V154H141.868ZM147.413 154L144.004 149.682L144.959 148.75L149.118 154H147.413ZM150.571 154V145.273H151.912V154H150.571ZM151.253 143.818C150.991 143.818 150.766 143.729 150.577 143.551C150.391 143.373 150.298 143.159 150.298 142.909C150.298 142.659 150.391 142.445 150.577 142.267C150.766 142.089 150.991 142 151.253 142C151.514 142 151.738 142.089 151.923 142.267C152.113 142.445 152.207 142.659 152.207 142.909C152.207 143.159 152.113 143.373 151.923 143.551C151.738 143.729 151.514 143.818 151.253 143.818ZM155.709 148.75V154H154.368V145.273H155.663V146.636H155.777C155.982 146.193 156.292 145.837 156.709 145.568C157.125 145.295 157.663 145.159 158.322 145.159C158.913 145.159 159.43 145.28 159.874 145.523C160.317 145.761 160.661 146.125 160.908 146.614C161.154 147.098 161.277 147.712 161.277 148.455V154H159.936V148.545C159.936 147.86 159.758 147.326 159.402 146.943C159.046 146.557 158.557 146.364 157.936 146.364C157.508 146.364 157.125 146.456 156.788 146.642C156.455 146.828 156.192 147.098 155.999 147.455C155.805 147.811 155.709 148.242 155.709 148.75ZM167.25 157.455C166.602 157.455 166.045 157.371 165.58 157.205C165.114 157.042 164.725 156.826 164.415 156.557C164.108 156.292 163.864 156.008 163.682 155.705L164.75 154.955C164.871 155.114 165.025 155.295 165.21 155.5C165.396 155.708 165.65 155.888 165.972 156.04C166.297 156.195 166.723 156.273 167.25 156.273C167.955 156.273 168.536 156.102 168.994 155.761C169.453 155.42 169.682 154.886 169.682 154.159V152.386H169.568C169.47 152.545 169.33 152.742 169.148 152.977C168.97 153.208 168.712 153.415 168.375 153.597C168.042 153.775 167.591 153.864 167.023 153.864C166.318 153.864 165.686 153.697 165.125 153.364C164.568 153.03 164.127 152.545 163.801 151.909C163.479 151.273 163.318 150.5 163.318 149.591C163.318 148.697 163.475 147.919 163.79 147.256C164.104 146.589 164.542 146.074 165.102 145.71C165.663 145.343 166.311 145.159 167.045 145.159C167.614 145.159 168.064 145.254 168.398 145.443C168.735 145.629 168.992 145.841 169.17 146.08C169.352 146.314 169.492 146.508 169.591 146.659H169.727V145.273H171.023V154.25C171.023 155 170.852 155.61 170.511 156.08C170.174 156.553 169.72 156.9 169.148 157.119C168.58 157.343 167.947 157.455 167.25 157.455ZM167.205 152.659C167.742 152.659 168.197 152.536 168.568 152.29C168.939 152.044 169.222 151.689 169.415 151.227C169.608 150.765 169.705 150.212 169.705 149.568C169.705 148.939 169.61 148.384 169.42 147.903C169.231 147.422 168.951 147.045 168.58 146.773C168.208 146.5 167.75 146.364 167.205 146.364C166.636 146.364 166.163 146.508 165.784 146.795C165.409 147.083 165.127 147.47 164.938 147.955C164.752 148.439 164.659 148.977 164.659 149.568C164.659 150.174 164.754 150.71 164.943 151.176C165.136 151.638 165.42 152.002 165.795 152.267C166.174 152.528 166.644 152.659 167.205 152.659ZM179.659 147.227L178.455 147.568C178.379 147.367 178.267 147.172 178.119 146.983C177.975 146.79 177.778 146.631 177.528 146.506C177.278 146.381 176.958 146.318 176.568 146.318C176.034 146.318 175.589 146.441 175.233 146.688C174.881 146.93 174.705 147.239 174.705 147.614C174.705 147.947 174.826 148.21 175.068 148.403C175.311 148.597 175.689 148.758 176.205 148.886L177.5 149.205C178.28 149.394 178.862 149.684 179.244 150.074C179.627 150.46 179.818 150.958 179.818 151.568C179.818 152.068 179.674 152.515 179.386 152.909C179.102 153.303 178.705 153.614 178.193 153.841C177.682 154.068 177.087 154.182 176.409 154.182C175.519 154.182 174.782 153.989 174.199 153.602C173.616 153.216 173.246 152.652 173.091 151.909L174.364 151.591C174.485 152.061 174.714 152.413 175.051 152.648C175.392 152.883 175.837 153 176.386 153C177.011 153 177.508 152.867 177.875 152.602C178.246 152.333 178.432 152.011 178.432 151.636C178.432 151.333 178.326 151.08 178.114 150.875C177.902 150.667 177.576 150.511 177.136 150.409L175.682 150.068C174.883 149.879 174.295 149.585 173.92 149.188C173.549 148.786 173.364 148.284 173.364 147.682C173.364 147.189 173.502 146.754 173.778 146.375C174.059 145.996 174.439 145.699 174.92 145.483C175.405 145.267 175.955 145.159 176.568 145.159C177.432 145.159 178.11 145.348 178.602 145.727C179.098 146.106 179.451 146.606 179.659 147.227Z" fill="#717171"/>
</g>
<path d="M290.5 122.5V123H291H327H327.5V122.5V120.25C327.5 119.123 327.052 118.042 326.255 117.245C325.458 116.448 324.377 116 323.25 116H294.75C293.623 116 292.542 116.448 291.745 117.245C290.948 118.042 290.5 119.123 290.5 120.25V122.5ZM327.5 125.5V125H327H291H290.5V125.5V139.75C290.5 140.877 290.948 141.958 291.745 142.755C292.542 143.552 293.623 144 294.75 144H323.25C324.377 144 325.458 143.552 326.255 142.755C327.052 141.958 327.5 140.877 327.5 139.75V125.5ZM288.5 120.25C288.5 118.592 289.158 117.003 290.331 115.831C291.503 114.658 293.092 114 294.75 114H323.25C324.908 114 326.497 114.658 327.669 115.831C328.842 117.003 329.5 118.592 329.5 120.25V139.75C329.5 141.408 328.842 142.997 327.669 144.169C326.497 145.342 324.908 146 323.25 146H294.75C293.092 146 291.503 145.342 290.331 144.169C289.158 142.997 288.5 141.408 288.5 139.75V120.25ZM316.5 135H321C321.265 135 321.52 135.105 321.707 135.293C321.895 135.48 322 135.735 322 136C322 136.265 321.895 136.52 321.707 136.707C321.52 136.895 321.265 137 321 137H316.5C316.235 137 315.98 136.895 315.793 136.707C315.605 136.52 315.5 136.265 315.5 136C315.5 135.735 315.605 135.48 315.793 135.293C315.98 135.105 316.235 135 316.5 135Z" fill="#4CAF4F" stroke="#4CAF4F"/>
<g clip-path="url(#clip6_16_1334)">
<path d="M359.51 107.636V128H355.205V111.723H355.085L350.422 114.646V110.828L355.463 107.636H359.51ZM367.9 125.216L367.79 126.31C367.704 127.185 367.538 128.056 367.293 128.925C367.054 129.8 366.802 130.592 366.537 131.301C366.279 132.01 366.07 132.567 365.911 132.972H363.167C363.266 132.58 363.402 132.034 363.574 131.331C363.747 130.635 363.909 129.853 364.061 128.984C364.214 128.116 364.31 127.231 364.35 126.33L364.4 125.216H367.9ZM378.718 107.358C379.765 107.358 380.773 107.534 381.74 107.885C382.715 108.236 383.583 108.796 384.346 109.565C385.114 110.334 385.721 111.355 386.165 112.628C386.616 113.894 386.845 115.448 386.851 117.291C386.851 119.021 386.656 120.566 386.265 121.925C385.88 123.277 385.327 124.427 384.604 125.375C383.882 126.323 383.01 127.045 381.989 127.543C380.968 128.033 379.828 128.278 378.569 128.278C377.21 128.278 376.01 128.017 374.969 127.493C373.928 126.963 373.09 126.243 372.453 125.335C371.824 124.42 371.443 123.393 371.31 122.253H375.556C375.721 122.995 376.069 123.572 376.6 123.983C377.13 124.387 377.786 124.589 378.569 124.589C379.894 124.589 380.902 124.013 381.591 122.859C382.281 121.699 382.629 120.112 382.635 118.097H382.496C382.191 118.693 381.78 119.207 381.263 119.638C380.746 120.062 380.153 120.39 379.483 120.622C378.82 120.854 378.114 120.97 377.365 120.97C376.166 120.97 375.095 120.688 374.154 120.125C373.212 119.562 372.47 118.786 371.926 117.798C371.383 116.811 371.111 115.684 371.111 114.418C371.105 113.052 371.419 111.836 372.056 110.768C372.692 109.701 373.58 108.866 374.721 108.263C375.867 107.653 377.2 107.351 378.718 107.358ZM378.748 110.739C378.078 110.739 377.481 110.898 376.958 111.216C376.441 111.534 376.03 111.962 375.725 112.499C375.426 113.036 375.281 113.635 375.287 114.298C375.287 114.968 375.433 115.571 375.725 116.108C376.023 116.638 376.427 117.062 376.938 117.381C377.455 117.692 378.045 117.848 378.708 117.848C379.205 117.848 379.666 117.755 380.09 117.57C380.514 117.384 380.882 117.129 381.194 116.804C381.512 116.473 381.76 116.091 381.939 115.661C382.118 115.23 382.208 114.772 382.208 114.288C382.201 113.645 382.049 113.055 381.75 112.518C381.452 111.982 381.041 111.551 380.517 111.226C379.994 110.901 379.404 110.739 378.748 110.739ZM389.834 128V124.898L397.083 118.186C397.699 117.589 398.216 117.053 398.634 116.575C399.058 116.098 399.38 115.631 399.598 115.173C399.817 114.709 399.926 114.209 399.926 113.672C399.926 113.075 399.791 112.562 399.519 112.131C399.247 111.693 398.876 111.358 398.405 111.126C397.935 110.888 397.401 110.768 396.804 110.768C396.181 110.768 395.638 110.894 395.174 111.146C394.71 111.398 394.352 111.759 394.1 112.23C393.848 112.701 393.722 113.261 393.722 113.911H389.635C389.635 112.578 389.937 111.421 390.54 110.44C391.143 109.459 391.989 108.7 393.076 108.163C394.163 107.626 395.416 107.358 396.834 107.358C398.292 107.358 399.562 107.616 400.642 108.134C401.73 108.644 402.575 109.353 403.178 110.261C403.781 111.17 404.083 112.21 404.083 113.384C404.083 114.152 403.93 114.911 403.625 115.661C403.327 116.41 402.793 117.241 402.025 118.156C401.256 119.064 400.172 120.155 398.773 121.428L395.8 124.341V124.48H404.351V128H389.834ZM415.286 128.278C414.239 128.272 413.228 128.096 412.254 127.751C411.286 127.407 410.417 126.847 409.648 126.071C408.879 125.295 408.27 124.268 407.819 122.989C407.375 121.709 407.153 120.138 407.153 118.276C407.159 116.565 407.355 115.037 407.739 113.692C408.13 112.339 408.687 111.193 409.41 110.251C410.139 109.31 411.011 108.594 412.025 108.104C413.039 107.607 414.176 107.358 415.435 107.358C416.794 107.358 417.994 107.623 419.035 108.153C420.076 108.677 420.911 109.39 421.54 110.291C422.177 111.193 422.561 112.204 422.694 113.324H418.448C418.282 112.615 417.934 112.058 417.404 111.653C416.874 111.249 416.218 111.047 415.435 111.047C414.11 111.047 413.102 111.624 412.413 112.777C411.73 113.93 411.382 115.498 411.369 117.48H411.508C411.813 116.877 412.224 116.363 412.741 115.939C413.264 115.508 413.858 115.18 414.521 114.955C415.19 114.723 415.896 114.607 416.638 114.607C417.845 114.607 418.919 114.892 419.86 115.462C420.801 116.025 421.544 116.801 422.087 117.788C422.631 118.776 422.903 119.906 422.903 121.179C422.903 122.558 422.581 123.784 421.938 124.858C421.302 125.932 420.41 126.774 419.263 127.384C418.123 127.987 416.798 128.285 415.286 128.278ZM415.266 124.898C415.929 124.898 416.522 124.739 417.046 124.42C417.57 124.102 417.981 123.671 418.279 123.128C418.577 122.584 418.727 121.974 418.727 121.298C418.727 120.622 418.577 120.016 418.279 119.479C417.987 118.942 417.583 118.514 417.066 118.196C416.549 117.878 415.959 117.719 415.296 117.719C414.799 117.719 414.338 117.812 413.914 117.997C413.496 118.183 413.129 118.441 412.81 118.773C412.499 119.104 412.254 119.489 412.075 119.926C411.896 120.357 411.806 120.818 411.806 121.308C411.806 121.964 411.955 122.564 412.254 123.108C412.558 123.652 412.969 124.086 413.487 124.411C414.01 124.735 414.603 124.898 415.266 124.898ZM429.751 125.216L429.642 126.31C429.556 127.185 429.39 128.056 429.145 128.925C428.906 129.8 428.654 130.592 428.389 131.301C428.13 132.01 427.922 132.567 427.762 132.972H425.018C425.118 132.58 425.253 132.034 425.426 131.331C425.598 130.635 425.761 129.853 425.913 128.984C426.065 128.116 426.162 127.231 426.201 126.33L426.251 125.216H429.751ZM433.276 124.42V121.03L441.777 107.636H444.701V112.33H442.971L437.611 120.811V120.97H449.692V124.42H433.276ZM443.05 128V123.386L443.13 121.885V107.636H447.167V128H443.05ZM460.088 128.278C458.603 128.278 457.28 128.023 456.12 127.513C454.967 126.996 454.056 126.286 453.386 125.385C452.723 124.477 452.382 123.429 452.362 122.243H456.697C456.724 122.74 456.886 123.178 457.184 123.555C457.489 123.927 457.894 124.215 458.397 124.42C458.901 124.626 459.468 124.729 460.098 124.729C460.754 124.729 461.334 124.613 461.838 124.381C462.342 124.149 462.736 123.827 463.021 123.416C463.306 123.005 463.449 122.531 463.449 121.994C463.449 121.451 463.296 120.97 462.991 120.553C462.693 120.128 462.262 119.797 461.699 119.558C461.142 119.32 460.479 119.2 459.71 119.2H457.811V116.038H459.71C460.359 116.038 460.933 115.926 461.43 115.7C461.934 115.475 462.325 115.163 462.603 114.766C462.882 114.361 463.021 113.891 463.021 113.354C463.021 112.843 462.898 112.396 462.653 112.011C462.414 111.62 462.076 111.315 461.639 111.097C461.208 110.878 460.704 110.768 460.127 110.768C459.544 110.768 459.011 110.875 458.527 111.087C458.043 111.292 457.655 111.587 457.363 111.972C457.072 112.356 456.916 112.807 456.896 113.324H452.77C452.789 112.151 453.124 111.116 453.774 110.222C454.423 109.327 455.298 108.627 456.399 108.124C457.506 107.613 458.755 107.358 460.147 107.358C461.553 107.358 462.782 107.613 463.836 108.124C464.89 108.634 465.709 109.323 466.292 110.192C466.882 111.054 467.174 112.021 467.167 113.095C467.174 114.235 466.819 115.187 466.103 115.949C465.394 116.711 464.469 117.195 463.329 117.401V117.56C464.827 117.752 465.967 118.272 466.75 119.121C467.538 119.963 467.93 121.017 467.923 122.283C467.93 123.443 467.595 124.473 466.919 125.375C466.249 126.277 465.324 126.986 464.145 127.503C462.965 128.02 461.612 128.278 460.088 128.278ZM478.833 128.278C477.786 128.272 476.775 128.096 475.8 127.751C474.833 127.407 473.964 126.847 473.195 126.071C472.426 125.295 471.817 124.268 471.366 122.989C470.922 121.709 470.7 120.138 470.7 118.276C470.706 116.565 470.902 115.037 471.286 113.692C471.677 112.339 472.234 111.193 472.957 110.251C473.686 109.31 474.558 108.594 475.572 108.104C476.586 107.607 477.723 107.358 478.982 107.358C480.341 107.358 481.541 107.623 482.582 108.153C483.622 108.677 484.458 109.39 485.087 110.291C485.724 111.193 486.108 112.204 486.241 113.324H481.995C481.829 112.615 481.481 112.058 480.951 111.653C480.421 111.249 479.764 111.047 478.982 111.047C477.656 111.047 476.649 111.624 475.96 112.777C475.277 113.93 474.929 115.498 474.915 117.48H475.055C475.36 116.877 475.771 116.363 476.288 115.939C476.811 115.508 477.405 115.18 478.067 114.955C478.737 114.723 479.443 114.607 480.185 114.607C481.392 114.607 482.466 114.892 483.407 115.462C484.348 116.025 485.091 116.801 485.634 117.788C486.178 118.776 486.45 119.906 486.45 121.179C486.45 122.558 486.128 123.784 485.485 124.858C484.849 125.932 483.957 126.774 482.81 127.384C481.67 127.987 480.344 128.285 478.833 128.278ZM478.813 124.898C479.476 124.898 480.069 124.739 480.593 124.42C481.117 124.102 481.528 123.671 481.826 123.128C482.124 122.584 482.273 121.974 482.273 121.298C482.273 120.622 482.124 120.016 481.826 119.479C481.534 118.942 481.13 118.514 480.613 118.196C480.096 117.878 479.506 117.719 478.843 117.719C478.346 117.719 477.885 117.812 477.461 117.997C477.043 118.183 476.675 118.441 476.357 118.773C476.046 119.104 475.8 119.489 475.621 119.926C475.442 120.357 475.353 120.818 475.353 121.308C475.353 121.964 475.502 122.564 475.8 123.108C476.105 123.652 476.516 124.086 477.033 124.411C477.557 124.735 478.15 124.898 478.813 124.898Z" fill="#4D4D4D"/>
<path d="M350.409 154V142.364H354.341C355.254 142.364 356 142.528 356.58 142.858C357.163 143.184 357.595 143.625 357.875 144.182C358.155 144.739 358.295 145.36 358.295 146.045C358.295 146.731 358.155 147.354 357.875 147.915C357.598 148.475 357.17 148.922 356.591 149.256C356.011 149.585 355.269 149.75 354.364 149.75H351.545V148.5H354.318C354.943 148.5 355.445 148.392 355.824 148.176C356.203 147.96 356.477 147.669 356.648 147.301C356.822 146.93 356.909 146.511 356.909 146.045C356.909 145.58 356.822 145.163 356.648 144.795C356.477 144.428 356.201 144.14 355.818 143.932C355.436 143.72 354.928 143.614 354.295 143.614H351.818V154H350.409ZM362.952 154.205C362.399 154.205 361.897 154.1 361.446 153.892C360.995 153.68 360.637 153.375 360.372 152.977C360.107 152.576 359.974 152.091 359.974 151.523C359.974 151.023 360.073 150.617 360.27 150.307C360.467 149.992 360.73 149.746 361.06 149.568C361.389 149.39 361.753 149.258 362.151 149.17C362.552 149.08 362.955 149.008 363.361 148.955C363.891 148.886 364.321 148.835 364.651 148.801C364.984 148.763 365.226 148.701 365.378 148.614C365.533 148.527 365.611 148.375 365.611 148.159V148.114C365.611 147.553 365.457 147.117 365.151 146.807C364.848 146.496 364.387 146.341 363.77 146.341C363.13 146.341 362.628 146.481 362.264 146.761C361.901 147.042 361.645 147.341 361.497 147.659L360.224 147.205C360.452 146.674 360.755 146.261 361.134 145.966C361.516 145.667 361.933 145.458 362.384 145.341C362.838 145.22 363.285 145.159 363.724 145.159C364.005 145.159 364.327 145.193 364.69 145.261C365.058 145.326 365.412 145.46 365.753 145.665C366.098 145.869 366.384 146.178 366.611 146.591C366.838 147.004 366.952 147.557 366.952 148.25V154H365.611V152.818H365.543C365.452 153.008 365.3 153.21 365.088 153.426C364.876 153.642 364.594 153.826 364.241 153.977C363.889 154.129 363.459 154.205 362.952 154.205ZM363.156 153C363.687 153 364.134 152.896 364.497 152.688C364.865 152.479 365.141 152.21 365.327 151.881C365.516 151.551 365.611 151.205 365.611 150.841V149.614C365.554 149.682 365.429 149.744 365.236 149.801C365.046 149.854 364.827 149.902 364.577 149.943C364.33 149.981 364.09 150.015 363.855 150.045C363.624 150.072 363.437 150.095 363.293 150.114C362.944 150.159 362.618 150.233 362.315 150.335C362.016 150.434 361.774 150.583 361.588 150.784C361.406 150.981 361.315 151.25 361.315 151.591C361.315 152.057 361.488 152.409 361.832 152.648C362.181 152.883 362.622 153 363.156 153ZM369.95 157.273C369.723 157.273 369.52 157.254 369.342 157.216C369.164 157.182 369.041 157.148 368.973 157.114L369.314 155.932C369.64 156.015 369.928 156.045 370.178 156.023C370.428 156 370.649 155.888 370.842 155.688C371.039 155.491 371.219 155.17 371.382 154.727L371.632 154.045L368.405 145.273H369.859L372.268 152.227H372.359L374.768 145.273H376.223L372.518 155.273C372.352 155.723 372.145 156.097 371.899 156.392C371.653 156.691 371.367 156.913 371.041 157.057C370.719 157.201 370.356 157.273 369.95 157.273ZM377.993 154V145.273H379.288V146.636H379.402C379.584 146.17 379.877 145.809 380.283 145.551C380.688 145.29 381.175 145.159 381.743 145.159C382.319 145.159 382.798 145.29 383.18 145.551C383.567 145.809 383.868 146.17 384.084 146.636H384.175C384.398 146.186 384.733 145.828 385.18 145.562C385.627 145.294 386.163 145.159 386.788 145.159C387.569 145.159 388.207 145.403 388.703 145.892C389.199 146.377 389.447 147.133 389.447 148.159V154H388.107V148.159C388.107 147.515 387.93 147.055 387.578 146.778C387.226 146.502 386.811 146.364 386.334 146.364C385.72 146.364 385.245 146.549 384.908 146.92C384.571 147.288 384.402 147.754 384.402 148.318V154H383.038V148.023C383.038 147.527 382.877 147.127 382.555 146.824C382.233 146.517 381.819 146.364 381.311 146.364C380.963 146.364 380.637 146.456 380.334 146.642C380.035 146.828 379.792 147.085 379.607 147.415C379.425 147.741 379.334 148.117 379.334 148.545V154H377.993ZM395.558 154.182C394.717 154.182 393.992 153.996 393.382 153.625C392.776 153.25 392.308 152.727 391.979 152.057C391.653 151.383 391.49 150.598 391.49 149.705C391.49 148.811 391.653 148.023 391.979 147.341C392.308 146.655 392.767 146.121 393.354 145.739C393.945 145.352 394.634 145.159 395.422 145.159C395.876 145.159 396.325 145.235 396.768 145.386C397.212 145.538 397.615 145.784 397.979 146.125C398.342 146.462 398.632 146.909 398.848 147.466C399.064 148.023 399.172 148.708 399.172 149.523V150.091H392.445V148.932H397.808C397.808 148.439 397.71 148 397.513 147.614C397.32 147.227 397.043 146.922 396.683 146.699C396.327 146.475 395.907 146.364 395.422 146.364C394.888 146.364 394.426 146.496 394.036 146.761C393.649 147.023 393.352 147.364 393.143 147.784C392.935 148.205 392.831 148.655 392.831 149.136V149.909C392.831 150.568 392.945 151.127 393.172 151.585C393.403 152.04 393.723 152.386 394.132 152.625C394.541 152.86 395.017 152.977 395.558 152.977C395.911 152.977 396.229 152.928 396.513 152.83C396.801 152.727 397.049 152.576 397.257 152.375C397.465 152.17 397.626 151.917 397.74 151.614L399.036 151.977C398.899 152.417 398.67 152.803 398.348 153.136C398.026 153.466 397.628 153.723 397.155 153.909C396.681 154.091 396.149 154.182 395.558 154.182ZM402.553 148.75V154H401.212V145.273H402.507V146.636H402.621C402.825 146.193 403.136 145.837 403.553 145.568C403.969 145.295 404.507 145.159 405.166 145.159C405.757 145.159 406.274 145.28 406.717 145.523C407.161 145.761 407.505 146.125 407.751 146.614C407.998 147.098 408.121 147.712 408.121 148.455V154H406.78V148.545C406.78 147.86 406.602 147.326 406.246 146.943C405.89 146.557 405.401 146.364 404.78 146.364C404.352 146.364 403.969 146.456 403.632 146.642C403.299 146.828 403.036 147.098 402.842 147.455C402.649 147.811 402.553 148.242 402.553 148.75ZM414.366 145.273V146.409H409.844V145.273H414.366ZM411.162 143.182H412.503V151.5C412.503 151.879 412.558 152.163 412.668 152.352C412.781 152.538 412.925 152.663 413.099 152.727C413.277 152.788 413.465 152.818 413.662 152.818C413.81 152.818 413.931 152.811 414.026 152.795C414.12 152.777 414.196 152.761 414.253 152.75L414.526 153.955C414.435 153.989 414.308 154.023 414.145 154.057C413.982 154.095 413.776 154.114 413.526 154.114C413.147 154.114 412.776 154.032 412.412 153.869C412.052 153.706 411.753 153.458 411.514 153.125C411.279 152.792 411.162 152.371 411.162 151.864V143.182ZM422.409 147.227L421.205 147.568C421.129 147.367 421.017 147.172 420.869 146.983C420.725 146.79 420.528 146.631 420.278 146.506C420.028 146.381 419.708 146.318 419.318 146.318C418.784 146.318 418.339 146.441 417.983 146.688C417.631 146.93 417.455 147.239 417.455 147.614C417.455 147.947 417.576 148.21 417.818 148.403C418.061 148.597 418.439 148.758 418.955 148.886L420.25 149.205C421.03 149.394 421.612 149.684 421.994 150.074C422.377 150.46 422.568 150.958 422.568 151.568C422.568 152.068 422.424 152.515 422.136 152.909C421.852 153.303 421.455 153.614 420.943 153.841C420.432 154.068 419.837 154.182 419.159 154.182C418.269 154.182 417.532 153.989 416.949 153.602C416.366 153.216 415.996 152.652 415.841 151.909L417.114 151.591C417.235 152.061 417.464 152.413 417.801 152.648C418.142 152.883 418.587 153 419.136 153C419.761 153 420.258 152.867 420.625 152.602C420.996 152.333 421.182 152.011 421.182 151.636C421.182 151.333 421.076 151.08 420.864 150.875C420.652 150.667 420.326 150.511 419.886 150.409L418.432 150.068C417.633 149.879 417.045 149.585 416.67 149.188C416.299 148.786 416.114 148.284 416.114 147.682C416.114 147.189 416.252 146.754 416.528 146.375C416.809 145.996 417.189 145.699 417.67 145.483C418.155 145.267 418.705 145.159 419.318 145.159C420.182 145.159 420.86 145.348 421.352 145.727C421.848 146.106 422.201 146.606 422.409 147.227Z" fill="#717171"/>
</g>
</g>
</g>
<defs>
<clipPath id="clip0_16_1334">
<rect width="540" height="160" fill="white"/>
</clipPath>
<clipPath id="clip1_16_1334">
<rect width="540" height="60" fill="white"/>
</clipPath>
<clipPath id="clip2_16_1334">
<rect width="191" height="60" fill="white" transform="translate(64)"/>
</clipPath>
<clipPath id="clip3_16_1334">
<rect width="191" height="60" fill="white" transform="translate(349)"/>
</clipPath>
<clipPath id="clip4_16_1334">
<rect width="540" height="60" fill="white" transform="translate(0 100)"/>
</clipPath>
<clipPath id="clip5_16_1334">
<rect width="191" height="60" fill="white" transform="translate(64 100)"/>
</clipPath>
<clipPath id="clip6_16_1334">
<rect width="191" height="60" fill="white" transform="translate(349 100)"/>
</clipPath>
</defs>
</svg>
